<?xml version="1.0" standalone="no"?>
<!DOCTYPE svg PUBLIC "-//W3C//DTD SVG 20010904//EN"
 "http://www.w3.org/TR/2001/REC-SVG-20010904/DTD/svg10.dtd">
<svg version="1.0" xmlns="http://www.w3.org/2000/svg"
 width="6912.000000pt" height="3456.000000pt" viewBox="0 0 6912.000000 3456.000000"
 preserveAspectRatio="xMidYMid meet">

<g transform="translate(0.000000,3456.000000) scale(0.100000,-0.100000)"
fill="#000000" stroke="none">
<path d="M0 17280 l0 -17280 34560 0 34560 0 0 17280 0 17280 -34560 0 -34560
0 0 -17280z m29428 6303 l2 -523 400 0 400 0 0 -185 0 -185 -400 0 -400 0 0
-1057 c0 -1114 4 -1220 45 -1408 81 -366 291 -488 502 -291 150 139 259 377
321 698 l27 138 143 0 c113 0 142 -3 142 -14 0 -7 20 -186 45 -396 l46 -383
-28 -41 c-48 -71 -185 -200 -275 -259 -210 -140 -448 -207 -735 -207 -245 0
-448 46 -659 150 -279 136 -464 336 -556 599 -46 135 -48 176 -48 1359 l0
1112 -140 0 -140 0 0 185 0 185 144 0 145 0 65 65 c187 187 441 612 506 846
11 40 20 85 20 100 0 14 3 29 7 33 4 3 99 5 212 4 l206 -3 3 -522z m4820 286
c207 -22 372 -69 557 -159 199 -96 418 -254 579 -418 l58 -60 -46 -483 c-25
-266 -46 -487 -46 -492 0 -4 -75 -6 -166 -5 l-166 3 -54 189 c-139 483 -297
800 -503 1007 -80 80 -111 103 -185 140 l-89 44 -112 0 c-111 0 -112 0 -199
-43 -398 -197 -657 -902 -656 -1786 1 -747 135 -1334 380 -1665 73 -99 147
-163 240 -209 72 -36 77 -37 185 -37 104 0 114 2 176 32 78 39 183 132 244
218 56 79 135 242 174 361 58 177 92 390 107 654 l6 126 -248 60 -249 61 -3
161 -2 162 605 0 605 0 0 -1105 0 -1106 -141 3 -141 3 -132 292 c-72 161 -133
292 -136 293 -3 0 -20 -27 -38 -60 -87 -158 -271 -328 -457 -422 -241 -122
-538 -176 -792 -143 -204 27 -333 67 -503 156 -326 171 -597 496 -745 894
-184 495 -217 1208 -80 1739 85 331 238 648 430 889 103 129 293 312 416 399
230 165 518 273 824 311 65 8 211 6 303 -4z m-11691 -91 c5 -7 365 -781 799
-1720 l789 -1707 3 1052 c4 1486 -10 1708 -135 2062 -39 109 -47 145 -50 223
l-4 92 254 0 c140 0 295 3 345 6 l92 7 0 -93 c0 -76 -6 -110 -30 -188 -38
-117 -65 -273 -80 -457 -8 -98 -11 -653 -10 -1832 l1 -1693 -518 0 -518 0
-729 1563 c-401 859 -732 1566 -737 1572 -12 12 -11 -1679 1 -2030 14 -412 48
-650 121 -849 24 -67 29 -95 29 -173 l0 -93 -232 0 c-128 0 -290 3 -360 7
l-128 6 0 77 c0 65 7 99 45 211 80 240 115 455 135 814 6 112 10 798 10 1673
l0 1482 449 0 c347 0 451 -3 458 -12z m25238 -2123 l0 -2130 -510 0 -510 0 -5
115 c-3 70 -8 110 -14 102 -11 -18 -175 -126 -241 -159 -132 -68 -361 -123
-506 -123 -87 0 -244 25 -321 50 -336 113 -601 391 -754 793 -109 285 -163
664 -151 1057 19 609 211 1095 565 1432 352 334 847 463 1320 343 53 -14 98
-25 99 -25 2 0 3 153 3 340 l0 340 513 -2 512 -3 0 -2130z m-20835 1460 c375
-43 644 -154 844 -344 281 -270 347 -651 185 -1068 -152 -388 -534 -724 -1034
-909 -247 -91 -605 -153 -882 -154 -47 0 -73 -4 -73 -11 0 -31 75 -230 123
-325 66 -132 124 -210 222 -302 130 -122 265 -176 435 -174 197 1 363 84 540
268 132 137 264 352 341 552 l24 62 150 0 150 0 46 -322 c53 -372 57 -337 -48
-449 -145 -154 -426 -302 -737 -388 -622 -174 -1249 -84 -1691 241 -98 72
-258 237 -334 343 -161 228 -272 531 -315 865 -117 893 201 1598 870 1933 169
85 403 155 584 176 52 6 109 13 125 15 83 9 365 4 475 -9z m14062 -11 c384
-65 629 -238 725 -511 l28 -78 3 -1492 2 -1493 -515 0 -515 0 0 138 0 138 -53
-51 c-222 -215 -472 -309 -777 -291 -563 33 -891 262 -1007 705 -34 131 -44
411 -19 577 60 406 261 686 623 868 152 76 298 126 703 240 262 74 448 134
503 163 l29 14 -4 232 c-5 263 -11 294 -79 371 -52 59 -111 81 -209 80 -254
-3 -567 -278 -696 -611 l-36 -94 -141 3 -141 3 -47 319 -46 320 21 18 c42 37
197 137 278 182 46 25 144 70 218 99 252 101 461 148 755 171 88 7 307 -4 397
-20z m-4269 -1441 c3 -1232 6 -1409 20 -1490 39 -221 105 -330 226 -371 85
-29 248 -9 451 57 l115 37 3 1582 2 1582 515 0 515 0 0 -1766 0 -1767 -117 7
c-65 3 -145 10 -178 15 -154 24 -338 12 -785 -48 -157 -22 -309 -42 -337 -45
-84 -10 -374 -7 -475 4 -518 61 -831 312 -943 754 -44 174 -45 210 -45 1559
l0 1287 515 0 514 0 4 -1397z m6387 815 l1 -583 70 75 c66 70 129 160 341 485
110 169 192 270 283 347 186 159 390 238 660 255 l105 6 0 -405 0 -406 -92 -7
c-374 -26 -642 -114 -911 -297 -148 -102 -324 -281 -421 -428 l-36 -55 0 -967
0 -968 -515 0 -515 0 0 1765 0 1765 515 0 515 0 0 -582z m-11272 -1220 l-3
-163 -512 -3 -513 -2 0 165 0 165 515 0 515 0 -2 -162z m3172 -4014 l0 -417
35 45 c69 91 209 178 335 209 78 18 260 16 340 -4 245 -64 432 -250 497 -497
25 -93 24 -301 -1 -395 -70 -261 -262 -447 -522 -505 -74 -17 -239 -14 -319 4
-136 32 -277 124 -353 231 l-21 30 -1 -132 0 -133 -95 0 -95 0 0 990 0 990
100 0 100 0 0 -416z m9817 399 c97 -46 96 -191 -1 -237 -118 -56 -247 62 -189
174 37 72 117 98 190 63z m1843 -973 l0 -990 -95 0 -95 0 0 133 0 132 -27 -35
c-84 -111 -212 -193 -350 -224 -90 -20 -248 -21 -331 -1 -272 64 -468 273
-518 555 -46 256 24 491 195 660 115 113 233 169 404 190 230 28 461 -59 583
-219 l34 -44 0 417 0 416 100 0 100 0 0 -990z m-6888 847 c124 -33 220 -83
302 -158 121 -111 174 -233 183 -419 16 -335 -167 -565 -516 -647 -51 -12
-143 -17 -403 -20 l-338 -5 0 -294 0 -294 -100 0 -100 0 0 936 0 936 438 -4
c434 -4 438 -5 534 -31z m11048 -277 l0 -150 63 0 c35 0 132 -3 215 -7 l152
-6 0 -79 0 -78 -215 0 -215 0 0 -437 c0 -264 5 -456 11 -483 24 -107 108 -164
240 -165 66 0 84 4 139 33 35 18 64 31 65 30 1 -2 15 -32 32 -68 l30 -66 -36
-26 c-67 -48 -133 -63 -276 -63 -127 0 -131 1 -192 33 -73 37 -124 86 -154
145 -47 90 -49 115 -49 605 l0 462 -125 0 -125 0 0 85 0 85 125 0 125 0 0 150
0 150 95 0 95 0 0 -150z m-9440 -235 l0 -95 -63 0 c-216 0 -383 -132 -437
-345 -9 -35 -14 -177 -17 -467 l-5 -418 -94 0 -94 0 0 700 0 700 95 0 95 0 0
-127 0 -127 29 45 c79 123 217 200 390 218 42 5 82 9 89 10 9 1 12 -24 12 -94z
m1100 63 c192 -48 365 -211 439 -414 31 -84 58 -264 47 -309 l-6 -25 -585 0
c-322 0 -585 -3 -585 -7 0 -5 7 -38 15 -76 51 -240 262 -397 535 -397 150 0
269 42 381 133 l55 45 51 -62 52 -61 -32 -33 c-54 -57 -177 -131 -262 -159
-108 -35 -293 -43 -416 -18 -273 55 -475 242 -546 505 -25 90 -25 300 0 390
29 110 92 224 164 301 178 188 424 255 693 187z m1501 2 c87 -19 228 -70 262
-95 17 -12 16 -17 -24 -89 l-43 -75 -50 28 c-193 108 -500 118 -642 20 -95
-65 -113 -201 -36 -282 50 -53 138 -84 347 -122 296 -53 431 -122 485 -247 95
-222 -36 -439 -312 -516 -49 -13 -102 -17 -238 -17 -189 0 -281 16 -415 72
-62 26 -155 83 -155 94 0 4 18 39 41 78 l41 72 32 -21 c192 -127 507 -172 699
-100 140 52 188 219 90 311 -53 49 -115 70 -333 114 -102 20 -218 47 -259 61
-175 58 -261 169 -261 333 0 133 54 231 169 308 141 95 366 122 602 73z m3925
5 c84 -22 190 -77 255 -132 152 -130 232 -301 246 -525 l6 -98 -591 0 -591 0
5 -32 c30 -177 115 -303 254 -377 82 -44 142 -61 240 -68 169 -11 328 38 430
133 l51 48 47 -54 c26 -29 50 -59 55 -66 12 -20 -106 -119 -197 -163 -107 -53
-191 -72 -330 -72 -183 0 -311 35 -440 122 -240 160 -352 453 -290 757 58 284
278 499 556 541 78 12 217 5 294 -14z m1785 0 c183 -47 320 -188 374 -385 16
-57 18 -125 22 -537 l5 -473 -101 0 -101 0 0 433 c0 472 -5 523 -57 618 -36
67 -108 131 -179 158 -122 46 -311 35 -431 -26 -60 -30 -151 -120 -181 -179
-51 -100 -54 -131 -59 -581 l-5 -423 -94 0 -94 0 2 703 3 702 90 0 90 0 3
-117 3 -117 67 67 c94 95 211 153 347 172 82 12 218 5 296 -15z m-12878 -579
c206 -464 263 -585 272 -573 5 9 125 274 265 589 l255 573 93 3 c58 2 92 -1
92 -8 0 -15 -706 -1596 -742 -1660 -104 -188 -231 -269 -424 -270 -125 0 -237
36 -317 102 l-29 24 43 69 c24 39 44 72 46 74 1 2 19 -9 39 -24 88 -68 217
-93 318 -63 65 19 128 92 191 221 30 61 55 119 55 128 0 8 -139 326 -309 705
-169 379 -306 693 -304 697 3 4 47 6 100 5 l95 -3 261 -589z m8037 -116 l0
-700 -94 0 c-54 0 -96 4 -98 10 -1 5 -2 320 0 700 l2 690 95 0 95 0 0 -700z
m130 -7772 c571 -112 1013 -492 1195 -1028 61 -177 70 -242 70 -485 0 -175 -4
-238 -18 -305 -64 -298 -215 -579 -422 -785 -269 -267 -604 -419 -983 -445
-208 -14 -24702 -14 -24843 0 -677 68 -1215 556 -1361 1234 -32 148 -31 446 1
596 44 204 128 403 242 572 85 125 275 315 399 397 223 149 465 238 710 260
47 5 5674 8 12505 7 11537 -1 12426 -3 12505 -18z"/>
<path d="M46330 22749 c-253 -27 -413 -230 -498 -629 -83 -388 -93 -1075 -21
-1500 54 -324 165 -539 321 -625 49 -28 60 -30 158 -30 91 0 113 4 168 26 87
37 162 84 243 152 l69 58 0 1240 0 1239 -27 11 c-59 22 -221 57 -283 61 -36 2
-94 1 -130 -3z"/>
<path d="M26584 22775 c-328 -71 -581 -483 -654 -1065 -25 -197 -21 -623 7
-761 l6 -32 96 7 c184 13 398 69 545 142 381 191 596 557 596 1015 0 408 -140
649 -405 698 -74 14 -114 13 -191 -4z"/>
<path d="M40548 21666 c-258 -133 -308 -165 -398 -256 -177 -178 -247 -432
-237 -855 3 -159 9 -215 25 -275 58 -216 170 -333 333 -347 117 -11 262 60
396 193 l83 84 0 780 c0 429 -1 779 -2 779 -2 -1 -91 -47 -200 -103z"/>
<path d="M35412 16904 c-183 -49 -314 -185 -358 -370 -24 -105 -15 -277 20
-369 78 -204 256 -325 481 -325 247 0 438 147 500 385 19 76 19 231 0 314 -43
179 -180 319 -360 366 -73 19 -212 18 -283 -1z"/>
<path d="M45918 16918 c-221 -25 -377 -165 -434 -388 -26 -101 -16 -273 21
-365 52 -131 126 -215 240 -271 81 -39 148 -54 249 -54 238 0 429 150 491 385
19 75 19 230 0 313 -61 256 -291 411 -567 380z"/>
<path d="M39040 16911 l0 -471 239 0 c131 0 285 5 342 11 271 27 425 141 468
347 46 220 -45 427 -227 513 -109 52 -168 60 -509 66 l-313 6 0 -472z"/>
<path d="M42230 16920 c-194 -35 -338 -174 -385 -372 -8 -35 -15 -66 -15 -70
0 -5 223 -8 495 -8 563 0 507 -11 480 93 -47 179 -186 315 -362 352 -74 16
-142 17 -213 5z"/>
<path d="M47681 16920 c-205 -31 -367 -194 -400 -402 l-8 -48 494 0 495 0 -7
43 c-31 189 -163 343 -335 391 -72 20 -172 26 -239 16z"/>
<path d="M28255 7968 c-2 -7 -79 -355 -170 -773 -91 -418 -168 -768 -171 -777
-4 -15 1 -18 30 -18 24 0 36 5 40 18 12 39 336 1530 336 1545 0 20 -58 24 -65
5z"/>
<path d="M37735 7958 c-28 -119 -335 -1533 -335 -1545 0 -10 9 -13 32 -11 l33
3 171 780 c94 429 169 783 167 788 -2 4 -17 7 -33 7 -22 0 -31 -6 -35 -22z"/>
<path d="M20904 7826 c-98 -98 38 -240 145 -150 76 64 29 184 -72 184 -31 0
-46 -7 -73 -34z"/>
<path d="M31704 7826 c-98 -98 38 -240 145 -150 76 64 29 184 -72 184 -31 0
-46 -7 -73 -34z"/>
<path d="M21376 7828 c-2 -7 -9 -38 -15 -69 -12 -59 -62 -172 -88 -201 -11
-12 -31 -18 -60 -18 l-43 0 0 -40 c0 -40 0 -40 39 -40 l39 0 4 -362 c3 -353 4
-364 26 -412 34 -74 64 -108 123 -141 46 -25 65 -29 129 -30 93 0 162 30 233
103 l48 49 -12 91 c-12 91 -13 92 -41 92 -22 0 -29 -5 -34 -27 -25 -115 -75
-204 -129 -230 -52 -25 -84 -10 -115 52 l-25 50 -3 383 -3 382 115 0 116 0 0
40 0 40 -115 0 -115 0 0 150 0 150 -35 0 c-20 0 -37 -6 -39 -12z"/>
<path d="M34750 7783 c-17 -80 -58 -179 -87 -214 -20 -23 -33 -29 -64 -29 -39
0 -39 0 -39 -40 l0 -40 40 0 40 0 0 -360 c0 -336 1 -363 20 -413 41 -109 133
-171 255 -172 86 0 162 33 230 101 50 50 50 51 34 159 -11 73 -12 75 -39 75
-24 0 -30 -5 -35 -32 -30 -139 -101 -238 -171 -238 -26 0 -58 33 -81 85 -16
36 -18 80 -21 418 l-3 377 115 0 116 0 0 40 0 40 -115 0 -115 0 0 150 0 150
-33 0 c-33 0 -34 -2 -47 -57z"/>
<path d="M39820 7816 c0 -42 -48 -178 -79 -228 -29 -46 -33 -48 -76 -48 l-45
0 0 -40 c0 -40 0 -40 39 -40 l40 0 3 -367 3 -368 28 -57 c87 -178 306 -207
466 -63 59 53 62 63 50 136 -18 112 -16 109 -49 109 -24 0 -30 -4 -30 -22 0
-53 -45 -153 -91 -200 -65 -68 -110 -64 -151 15 -23 41 -23 49 -26 430 l-3
387 111 0 110 0 0 40 0 40 -110 0 -110 0 0 83 c0 45 -3 112 -7 150 l-6 67 -33
0 c-29 0 -34 -3 -34 -24z"/>
<path d="M21880 7140 l0 -610 95 0 95 0 0 344 0 343 49 65 c80 106 186 171
244 149 14 -6 34 -25 44 -43 16 -30 18 -71 21 -445 l3 -413 95 0 95 0 -3 438
-3 438 -25 49 c-37 70 -91 98 -185 93 -97 -4 -170 -41 -262 -134 l-73 -72 0
204 0 204 -95 0 -95 0 0 -610z"/>
<path d="M23577 7744 c-4 -4 -7 -278 -7 -610 l0 -602 98 -1 c53 0 124 -5 157
-11 88 -15 195 -12 249 6 103 35 201 161 240 309 25 94 31 274 13 380 -44 251
-213 399 -372 326 -50 -22 -125 -104 -159 -173 l-26 -51 -2 214 -3 214 -90 3
c-50 1 -94 0 -98 -4z m464 -317 c78 -52 114 -176 113 -382 -1 -236 -53 -377
-159 -432 -32 -17 -137 -20 -190 -5 l-30 8 0 286 0 285 42 84 c47 93 75 128
125 159 42 26 57 25 99 -3z"/>
<path d="M32557 7744 c-4 -4 -7 -52 -7 -106 0 -54 -3 -98 -6 -98 -3 0 -31 7
-62 16 -75 22 -183 15 -248 -16 -158 -76 -244 -260 -244 -519 0 -201 41 -337
126 -424 59 -61 108 -81 189 -81 78 0 126 19 203 81 l42 34 0 -50 0 -51 100 0
100 0 -2 608 -3 607 -90 3 c-50 1 -94 0 -98 -4z m-44 -287 l37 -16 0 -350 0
-349 -44 -45 c-56 -58 -99 -80 -158 -81 -119 -2 -177 132 -178 406 0 247 42
375 145 440 37 23 139 21 198 -5z"/>
<path d="M37080 7642 l0 -109 -52 18 c-30 10 -82 18 -120 19 -177 1 -312 -122
-370 -337 -28 -104 -30 -304 -5 -413 47 -203 182 -328 330 -306 60 9 136 48
180 91 l37 37 0 -56 0 -56 95 0 95 0 0 610 0 610 -95 0 -95 0 0 -108z m-37
-185 l37 -16 0 -349 0 -350 -59 -54 c-94 -88 -172 -99 -236 -35 -71 71 -107
274 -86 484 18 175 64 282 138 323 45 24 144 23 206 -3z"/>
<path d="M44490 7642 l0 -109 -52 18 c-30 10 -82 18 -120 19 -177 1 -312 -122
-370 -337 -28 -104 -30 -304 -5 -413 47 -203 182 -328 330 -306 60 9 136 48
180 91 l37 37 0 -56 0 -56 95 0 95 0 0 610 0 610 -95 0 -95 0 0 -108z m-37
-185 l37 -16 0 -349 0 -350 -59 -54 c-94 -88 -172 -99 -236 -35 -71 71 -107
274 -86 484 18 175 64 282 138 323 45 24 144 23 206 -3z"/>
<path d="M20645 7641 c-18 -56 -86 -126 -112 -117 -96 37 -258 33 -349 -8
-148 -68 -214 -198 -214 -421 0 -207 59 -328 191 -394 59 -29 59 -29 29 -36
-27 -6 -30 -11 -30 -43 l0 -37 108 0 c59 -1 127 -7 152 -14 57 -17 115 -74
124 -123 30 -162 -152 -262 -322 -177 -72 35 -104 71 -145 157 -24 51 -33 62
-53 62 -18 0 -24 -6 -25 -22 0 -13 -4 -54 -8 -93 -7 -67 -6 -71 18 -96 97 -96
300 -141 472 -105 219 47 315 206 215 357 -32 48 -85 82 -171 110 l-65 22 63
21 c161 54 247 199 247 415 0 147 -35 251 -114 339 -44 48 -46 52 -24 52 30 0
83 32 103 63 14 22 14 28 -11 80 -33 74 -56 76 -79 8z m-195 -179 c45 -24 93
-104 111 -184 8 -35 14 -115 14 -178 0 -248 -67 -370 -203 -370 -100 0 -158
45 -189 148 -25 81 -26 362 -1 443 34 110 91 159 183 159 30 0 65 -8 85 -18z"/>
<path d="M41400 7673 c0 -34 -43 -105 -79 -128 -35 -24 -38 -24 -85 -10 -121
37 -293 8 -383 -64 -172 -135 -193 -540 -38 -704 33 -35 95 -74 132 -83 l28
-8 -32 -8 c-30 -8 -33 -12 -33 -46 l0 -37 113 0 c106 0 117 -2 172 -30 68 -35
95 -77 95 -145 0 -63 -34 -117 -90 -148 -62 -33 -176 -28 -242 11 -61 36 -110
92 -138 160 -19 45 -28 57 -46 57 -27 0 -30 -10 -39 -111 l-6 -76 37 -33 c144
-126 440 -146 606 -41 88 56 128 156 98 246 -25 76 -122 153 -213 170 -40 8
-60 25 -30 25 41 0 139 58 185 109 156 174 135 543 -40 687 l-25 21 36 6 c44
7 93 40 102 68 4 12 -3 42 -17 75 -18 42 -28 54 -45 54 -15 0 -23 -6 -23 -17z
m-199 -216 c79 -53 110 -139 116 -324 10 -271 -58 -403 -207 -403 -144 0 -203
106 -203 365 0 276 58 382 209 384 37 1 60 -5 85 -22z"/>
<path d="M25038 7541 c-135 -43 -235 -162 -273 -323 -19 -81 -19 -253 0 -343
48 -230 219 -381 409 -361 79 8 187 60 243 118 l43 44 -13 69 c-11 63 -15 70
-37 73 -22 3 -29 -5 -55 -65 -89 -204 -268 -230 -353 -51 -46 98 -56 163 -57
348 0 157 2 182 23 245 42 126 107 195 186 195 79 0 135 -56 157 -157 11 -48
15 -53 39 -53 22 0 31 9 55 59 l28 60 -27 36 c-84 109 -228 151 -368 106z"/>
<path d="M25850 7544 c-115 -30 -205 -122 -249 -250 -60 -179 -49 -438 25
-591 32 -67 115 -142 185 -168 75 -28 222 -28 299 0 79 28 179 129 209 210 37
97 53 208 47 321 -13 267 -116 430 -301 479 -73 18 -142 18 -215 -1z m207
-100 c77 -59 114 -193 114 -414 0 -212 -24 -314 -94 -387 -85 -90 -222 -58
-275 65 -35 82 -45 170 -40 365 6 196 21 271 68 337 51 71 157 87 227 34z"/>
<path d="M26965 7551 c-98 -25 -206 -121 -268 -236 -16 -29 -16 -26 -17 93 l0
122 -100 0 -100 0 0 -500 0 -500 100 0 100 0 0 320 0 321 26 51 c84 165 208
254 283 202 54 -38 56 -56 59 -491 l3 -403 95 0 94 0 0 325 0 326 30 59 c40
78 133 177 184 194 59 20 93 5 120 -53 20 -44 21 -62 24 -448 l3 -403 95 0 95
0 -3 428 c-3 425 -3 427 -27 474 -59 119 -169 155 -300 97 -66 -29 -123 -80
-177 -159 l-49 -72 -10 59 c-23 122 -85 190 -181 198 -27 2 -62 1 -79 -4z"/>
<path d="M28813 7541 c-53 -25 -115 -87 -147 -148 l-25 -48 -1 98 0 97 -100 0
-100 0 2 -647 3 -648 95 0 95 0 3 189 c2 175 4 188 18 168 8 -12 39 -36 67
-52 144 -82 343 8 427 193 50 111 64 188 64 347 1 155 -11 215 -59 310 -68
131 -222 195 -342 141z m74 -122 c102 -38 155 -212 133 -439 -15 -158 -60
-269 -132 -323 -68 -52 -132 -47 -202 14 l-46 41 0 243 0 243 41 81 c41 83 81
125 136 141 38 11 38 11 70 -1z"/>
<path d="M30330 7543 c-215 -59 -339 -242 -340 -499 0 -282 149 -486 385 -527
119 -20 276 21 359 94 65 57 67 64 53 150 -12 72 -13 74 -42 77 -28 3 -32 -1
-59 -63 -48 -110 -138 -185 -223 -185 -53 0 -136 43 -173 90 -34 43 -80 136
-80 163 0 14 10 17 63 17 198 0 415 117 487 263 86 177 22 351 -153 413 -67
24 -201 27 -277 7z m215 -82 c43 -24 75 -88 82 -163 18 -199 -129 -346 -375
-374 l-59 -6 -6 38 c-25 150 20 344 102 437 78 89 174 114 256 68z"/>
<path d="M31093 7545 c-107 -30 -174 -92 -193 -178 -11 -45 -10 -62 4 -112 23
-78 85 -138 251 -242 154 -97 209 -142 235 -194 25 -48 26 -130 3 -169 -36
-62 -140 -88 -217 -56 -75 31 -150 122 -177 214 -11 38 -15 42 -45 42 -36 0
-38 -4 -49 -80 -4 -25 -9 -53 -11 -62 -8 -26 85 -120 148 -150 115 -56 242
-60 347 -12 105 47 160 123 169 230 12 149 -66 248 -321 407 -152 94 -197 140
-197 198 0 31 6 47 28 69 100 99 291 24 352 -139 16 -41 21 -46 53 -49 l35 -3
13 72 c15 85 8 105 -56 150 -90 65 -264 95 -372 64z"/>
<path d="M33179 7542 c-158 -43 -275 -167 -319 -337 -52 -203 2 -438 129 -566
102 -102 241 -145 384 -121 112 20 222 78 262 138 14 22 14 34 4 104 l-12 80
-32 0 c-28 0 -33 -5 -48 -47 -56 -152 -185 -233 -302 -189 -76 30 -158 132
-181 229 l-6 27 64 0 c137 0 306 63 401 150 188 172 163 440 -49 519 -82 31
-208 37 -295 13z m230 -89 c47 -36 66 -89 66 -188 0 -78 -4 -97 -27 -141 -54
-103 -167 -173 -314 -195 -46 -7 -87 -9 -91 -6 -3 4 -6 60 -6 124 0 92 5 133
21 183 27 84 77 165 124 203 69 56 167 64 227 20z"/>
<path d="M34237 7549 c-79 -12 -155 -56 -234 -135 l-73 -72 0 99 0 99 -95 0
-95 0 0 -505 0 -505 95 0 95 0 0 341 0 341 36 54 c39 59 129 146 177 170 37
20 90 22 111 5 32 -26 36 -85 36 -498 l0 -413 95 0 95 0 0 418 c0 248 -4 432
-10 453 -31 111 -116 165 -233 148z"/>
<path d="M38427 7549 c-79 -12 -155 -56 -234 -135 l-73 -72 0 99 0 99 -95 0
-95 0 0 -505 0 -505 95 0 95 0 0 341 0 341 36 54 c39 59 129 146 177 170 37
20 90 22 111 5 32 -26 36 -85 36 -498 l0 -413 95 0 95 0 0 418 c0 248 -4 432
-10 453 -31 111 -116 165 -233 148z"/>
<path d="M39113 7545 c-180 -49 -297 -177 -338 -370 -53 -254 57 -528 249
-619 82 -39 180 -53 269 -38 131 22 277 113 277 174 0 12 -5 50 -11 85 -11 60
-12 63 -40 63 -26 0 -32 -7 -58 -64 -89 -196 -260 -244 -383 -108 -39 43 -80
118 -92 165 l-6 27 62 0 c162 1 326 68 426 174 74 79 102 147 102 244 -1 110
-48 190 -140 237 -89 45 -216 57 -317 30z m167 -65 c28 0 81 -49 101 -95 23
-51 25 -164 3 -228 -18 -53 -80 -128 -135 -163 -56 -35 -147 -62 -220 -66
l-64 -3 0 130 c1 153 15 213 75 302 22 33 58 72 80 87 41 27 105 47 128 40 8
-2 22 -4 32 -4z"/>
<path d="M42775 7542 c-74 -20 -160 -59 -211 -98 -30 -22 -31 -25 -23 -71 5
-26 11 -63 14 -80 5 -27 11 -33 30 -33 20 0 30 12 55 64 33 71 72 109 139 139
102 45 181 -17 181 -142 0 -48 -2 -51 -37 -69 -21 -11 -96 -38 -168 -62 -144
-46 -194 -72 -242 -122 -46 -48 -71 -103 -84 -186 -24 -143 23 -273 116 -328
134 -78 283 -46 382 85 l33 43 0 -76 0 -76 95 0 95 0 0 433 c0 399 -2 435 -19
473 -47 104 -195 147 -356 106z m153 -790 c-41 -67 -99 -119 -151 -133 -50
-13 -103 11 -132 61 -17 30 -20 53 -20 155 0 182 22 214 213 306 l117 56 3
-195 2 -195 -32 -55z"/>
<path d="M20880 7035 l0 -505 100 0 100 0 0 505 0 505 -100 0 -100 0 0 -505z"/>
<path d="M22742 7133 c3 -401 3 -409 26 -458 68 -148 191 -190 440 -149 64 11
123 14 175 10 l77 -6 0 505 0 505 -95 0 -95 0 0 -465 0 -464 -37 -11 c-21 -6
-72 -14 -113 -17 -98 -7 -133 9 -163 75 -21 45 -22 61 -25 465 l-3 417 -95 0
-95 0 3 -407z"/>
<path d="M29330 7035 l0 -505 100 0 100 0 0 310 0 311 64 62 c73 72 178 132
260 149 l56 11 0 83 c0 81 -1 84 -22 84 -76 -2 -157 -57 -242 -163 -35 -45
-76 -93 -90 -106 l-26 -24 0 146 0 147 -100 0 -100 0 0 -505z"/>
<path d="M31680 7035 l0 -505 100 0 100 0 0 505 0 505 -100 0 -100 0 0 -505z"/>
<path d="M36275 7493 c-10 -68 -45 -152 -101 -238 -27 -41 -51 -75 -54 -75 -3
0 -52 79 -110 175 l-105 175 -107 0 c-60 0 -108 -3 -108 -6 0 -3 70 -118 155
-255 85 -137 155 -252 155 -256 0 -3 -71 -108 -158 -232 -87 -124 -162 -232
-166 -238 -6 -10 16 -13 96 -13 l103 0 13 66 c17 90 64 209 113 285 49 75 26
95 185 -163 l116 -188 104 0 104 0 -176 290 -176 290 38 53 c37 50 251 324
282 360 14 16 9 17 -90 17 l-106 0 -7 -47z"/>
<path d="M41602 7148 c5 -430 8 -454 66 -534 69 -94 192 -122 404 -89 77 12
136 15 186 11 l72 -7 0 506 0 505 -100 0 -100 0 0 -464 0 -464 -32 -12 c-18
-6 -69 -14 -113 -17 -95 -5 -130 11 -161 73 -18 36 -19 68 -22 462 l-3 422
-100 0 -101 0 4 -392z"/>
<path d="M43270 7035 l0 -505 100 0 100 0 0 310 0 311 64 62 c73 72 178 132
260 149 l56 11 0 83 c0 81 -1 84 -22 84 -76 -2 -157 -57 -242 -163 -35 -45
-76 -93 -90 -106 l-26 -24 0 146 0 147 -100 0 -100 0 0 -505z"/>
<path d="M35260 7025 l0 -35 150 0 150 0 0 35 0 35 -150 0 -150 0 0 -35z"/>
<path d="M40330 7025 l0 -35 145 0 145 0 0 35 0 35 -145 0 -145 0 0 -35z"/>
<path d="M24498 6713 c-61 -38 -69 -116 -19 -167 26 -26 39 -31 77 -31 39 0
50 5 75 33 43 47 41 102 -5 148 -39 39 -83 45 -128 17z"/>
</g>
</svg>
