<?xml version="1.0" standalone="no"?>
<!DOCTYPE svg PUBLIC "-//W3C//DTD SVG 20010904//EN"
 "http://www.w3.org/TR/2001/REC-SVG-20010904/DTD/svg10.dtd">
<svg version="1.0" xmlns="http://www.w3.org/2000/svg"
 width="6912.000000pt" height="3456.000000pt" viewBox="0 0 6912.000000 3456.000000"
 preserveAspectRatio="xMidYMid meet">

<g transform="translate(0.000000,3456.000000) scale(0.100000,-0.100000)"
fill="#000000" stroke="none">
<path d="M0 17280 l0 -17280 34560 0 34560 0 0 17280 0 17280 -34560 0 -34560
0 0 -17280z m33230 16925 c15 -18 5 -35 -21 -35 -12 0 -19 7 -19 18 0 33 20
42 40 17z m-17378 -95 c28 -22 43 -79 23 -87 -7 -2 -24 6 -38 19 -14 13 -32
29 -41 36 -9 7 -16 22 -16 32 0 27 39 27 72 0z m17463 1 c3 -5 1 -12 -5 -16
-5 -3 -10 1 -10 9 0 18 6 21 15 7z m-16095 -113 c0 -17 -28 -7 -33 11 -4 17
-2 18 14 8 10 -6 19 -15 19 -19z m11040 -24 c0 -16 -16 -19 -25 -4 -8 13 4 32
16 25 5 -4 9 -13 9 -21z m-3322 -23 c3 -8 -1 -12 -9 -9 -7 2 -15 10 -17 17 -3
8 1 12 9 9 7 -2 15 -10 17 -17z m-538 -7 c0 -8 -5 -12 -10 -9 -6 4 -8 11 -5
16 9 14 15 11 15 -7z m840 -44 c0 -5 -4 -10 -10 -10 -5 0 -10 5 -10 10 0 6 5
10 10 10 6 0 10 -4 10 -10z m1310 -15 c0 -8 -7 -15 -15 -15 -8 0 -15 7 -15 15
0 8 7 15 15 15 8 0 15 -7 15 -15z m13046 -144 c-10 -15 -46 -14 -46 2 0 7 5
18 12 25 10 10 15 9 26 -2 8 -8 11 -19 8 -25z m-13156 8 c0 -5 -12 -9 -27 -9
-26 0 -26 1 -8 14 20 14 35 12 35 -5z m4670 -1 c0 -18 -2 -20 -9 -8 -6 8 -7
18 -5 22 9 14 14 9 14 -14z m-6240 2 c0 -5 -4 -10 -10 -10 -5 0 -10 5 -10 10
0 6 5 10 10 10 6 0 10 -4 10 -10z m6130 -274 c0 -21 -21 -31 -31 -15 -14 22
-11 29 11 29 11 0 20 -6 20 -14z m-567 -30 c6 -16 -2 -28 -14 -20 -12 7 -11
34 0 34 5 0 11 -6 14 -14z m-11068 -26 c3 -5 2 -10 -4 -10 -5 0 -13 5 -16 10
-3 6 -2 10 4 10 5 0 13 -4 16 -10z m17925 -301 c0 -5 -4 -9 -10 -9 -5 0 -10 7
-10 16 0 8 5 12 10 9 6 -3 10 -10 10 -16z m-4480 -10 c0 -5 -4 -9 -10 -9 -5 0
-10 7 -10 16 0 8 5 12 10 9 6 -3 10 -10 10 -16z m7948 -400 c9 -15 10 -25 3
-32 -16 -16 -41 0 -41 28 0 30 20 33 38 4z m-26554 -71 c-3 -5 -12 -4 -20 3
-7 6 -11 15 -8 21 3 5 12 4 20 -3 7 -6 11 -15 8 -21z m18666 2 c0 -5 -4 -10
-10 -10 -5 0 -10 5 -10 10 0 6 5 10 10 10 6 0 10 -4 10 -10z m-13630 -35 c0
-8 -4 -15 -10 -15 -5 0 -10 7 -10 15 0 8 5 15 10 15 6 0 10 -7 10 -15z m14469
-11 c14 -32 6 -47 -20 -34 -22 12 -26 60 -6 60 8 0 19 -12 26 -26z m7417 -45
c3 -6 2 -15 -2 -19 -12 -12 -38 5 -30 19 9 14 23 14 32 0z m-18106 -124 c0 -8
-4 -15 -10 -15 -5 0 -10 7 -10 15 0 8 5 15 10 15 6 0 10 -7 10 -15z m9907 -97
c-3 -8 -6 -5 -6 6 -1 11 2 17 5 13 3 -3 4 -12 1 -19z m14638 -43 c0 -10 -6
-20 -12 -22 -8 -3 -13 5 -13 22 0 17 5 25 13 23 6 -3 12 -13 12 -23z m-24245
5 c0 -5 -2 -10 -4 -10 -3 0 -8 5 -11 10 -3 6 -1 10 4 10 6 0 11 -4 11 -10z
m1437 -236 c-3 -3 -12 -4 -19 -1 -8 3 -5 6 6 6 11 1 17 -2 13 -5z m4651 -87
c2 -10 -3 -17 -12 -17 -10 0 -16 9 -16 21 0 24 23 21 28 -4z m-9951 -123 c-3
-3 -12 -4 -19 -1 -8 3 -5 6 6 6 11 1 17 -2 13 -5z m15873 -65 c0 -19 -5 -29
-15 -29 -11 0 -15 11 -15 41 0 36 2 40 15 29 8 -7 15 -25 15 -41z m19600 -148
c0 -10 -7 -24 -16 -31 -12 -11 -18 -11 -30 2 -14 14 -14 17 1 32 22 22 45 20
45 -3z m-32030 -55 c0 -3 -4 -8 -10 -11 -5 -3 -10 -1 -10 4 0 6 5 11 10 11 6
0 10 -2 10 -4z m2985 -104 c-3 -7 2 -27 11 -44 18 -35 5 -60 -17 -33 -8 9 -24
26 -36 37 -23 22 -28 43 -17 72 5 14 9 14 35 -1 17 -10 27 -23 24 -31z m7460
-12 c3 -5 1 -10 -4 -10 -6 0 -11 5 -11 10 0 6 2 10 4 10 3 0 8 -4 11 -10z
m-749 -96 c-4 -12 -10 -14 -17 -7 -5 5 -7 17 -3 27 4 12 10 14 17 7 5 -5 7
-17 3 -27z m-2986 -5 c0 -5 -7 -9 -15 -9 -15 0 -20 12 -9 23 8 8 24 -1 24 -14z
m19240 -34 c0 -9 -9 -15 -21 -15 -18 0 -19 2 -9 15 7 8 16 15 21 15 5 0 9 -7
9 -15z m12160 -29 c0 -27 -24 -51 -40 -41 -14 9 -13 22 6 50 19 29 34 24 34
-9z m-55183 8 c-3 -3 -12 -4 -19 -1 -8 3 -5 6 6 6 11 1 17 -2 13 -5z m27193
-16 c-1 -12 -50 -55 -50 -44 0 3 4 16 10 30 10 26 40 36 40 14z m9182 -38 c-2
-14 -8 -32 -13 -40 -6 -11 -8 -8 -9 12 0 15 -4 30 -10 33 -18 11 -10 26 13 23
17 -2 21 -8 19 -28z m15024 -45 c-7 -18 -26 -20 -26 -2 0 18 24 41 28 27 2 -6
1 -17 -2 -25z m-27756 -105 c0 -5 -4 -10 -9 -10 -6 0 -13 5 -16 10 -3 6 1 10
9 10 9 0 16 -4 16 -10z m3876 -86 c-5 -14 -9 -15 -19 -5 -9 9 -9 14 3 21 18
11 24 6 16 -16z m-13736 2 c0 -11 -19 -15 -25 -6 -3 5 1 10 9 10 9 0 16 -2 16
-4z m4170 -11 c0 -8 -4 -15 -10 -15 -5 0 -10 7 -10 15 0 8 5 15 10 15 6 0 10
-7 10 -15z m-1470 -10 c10 -12 9 -16 -5 -21 -19 -8 -40 9 -31 25 10 15 21 14
36 -4z m7280 -6 c0 -5 -4 -9 -10 -9 -5 0 -10 7 -10 16 0 8 5 12 10 9 6 -3 10
-10 10 -16z m1930 6 c0 -8 -7 -15 -15 -15 -16 0 -20 12 -8 23 11 12 23 8 23
-8z m-10189 -68 c-1 -12 -15 -9 -19 4 -3 6 1 10 8 8 6 -3 11 -8 11 -12z
m10136 -149 c-3 -8 -6 -5 -6 6 -1 11 2 17 5 13 3 -3 4 -12 1 -19z m-1602 -48
c-6 -9 -9 -9 -16 1 -10 17 0 34 13 21 6 -6 7 -16 3 -22z m3894 -26 c3 -16 1
-17 -13 -5 -19 16 -21 34 -3 29 6 -3 14 -13 16 -24z m1256 -52 c-6 -16 -7 -16
-17 1 -5 10 -7 26 -3 35 6 16 7 16 17 -1 5 -10 7 -26 3 -35z m-2814 -145 c-16
-16 -26 20 -10 40 13 15 14 14 17 -7 2 -12 -1 -27 -7 -33z m-606 4 c3 -5 1
-12 -5 -16 -5 -3 -10 1 -10 9 0 18 6 21 15 7z m3085 -36 c0 -14 -4 -25 -10
-25 -5 0 -10 11 -10 25 0 14 5 25 10 25 6 0 10 -11 10 -25z m5797 -9 c-4 -9
-11 -16 -17 -16 -11 0 -14 33 -3 44 11 10 26 -11 20 -28z m-2041 -43 c-11 -11
-17 4 -9 23 7 18 8 18 11 1 2 -10 1 -21 -2 -24z m-7956 -83 c0 -5 -2 -10 -4
-10 -3 0 -8 5 -11 10 -3 6 -1 10 4 10 6 0 11 -4 11 -10z m1180 -61 c0 -10 -4
-19 -10 -19 -5 0 -10 12 -10 26 0 14 4 23 10 19 6 -3 10 -15 10 -26z m-7267
-83 c6 -15 -1 -26 -15 -26 -4 0 -8 9 -8 20 0 23 15 27 23 6z m717 -52 c0 -17
-6 -24 -19 -24 -23 0 -35 28 -20 46 15 19 39 6 39 -22z m13744 -41 c3 -10 4
-31 1 -48 -2 -16 -4 -33 -4 -36 -2 -16 -36 -18 -57 -4 -28 18 -32 60 -7 87 21
23 60 23 67 1z m11716 -157 c0 -12 -7 -31 -15 -42 -13 -16 -16 -17 -25 -4 -18
27 -23 62 -10 70 21 13 50 -1 50 -24z m-15640 -18 c0 -22 -17 -41 -29 -34 -19
12 -13 46 9 46 11 0 20 -6 20 -12z m767 -108 c14 -21 7 -49 -16 -67 -23 -18
-26 -17 -68 22 l-37 34 34 15 c48 21 73 20 87 -4z m19973 -5 c-29 -17 -50 -19
-50 -6 0 5 10 12 23 14 44 8 52 6 27 -8z m-21742 -286 c-2 -6 -8 -10 -13 -10
-5 0 -11 4 -13 10 -2 6 4 11 13 11 9 0 15 -5 13 -11z m-1042 -65 c8 -33 -9
-52 -31 -34 -15 13 -20 42 -8 53 14 15 33 6 39 -19z m-26176 -16 c0 -13 -23
-5 -28 10 -2 7 2 10 12 6 9 -3 16 -11 16 -16z m26420 -68 c0 -5 -4 -10 -10
-10 -5 0 -10 5 -10 10 0 6 5 10 10 10 6 0 10 -4 10 -10z m-820 -21 c0 -5 -4
-9 -10 -9 -5 0 -10 7 -10 16 0 8 5 12 10 9 6 -3 10 -10 10 -16z m22378 -63
c23 -47 -7 -76 -42 -40 -19 19 -21 60 -3 67 20 9 31 2 45 -27z m-43499 -43 c1
-7 -3 -13 -9 -13 -5 0 -10 15 -9 33 0 27 2 29 9 12 5 -11 9 -26 9 -32z m19118
-125 c-3 -8 -6 -5 -6 6 -1 11 2 17 5 13 3 -3 4 -12 1 -19z m-12160 -30 c-3 -8
-6 -5 -6 6 -1 11 2 17 5 13 3 -3 4 -12 1 -19z m12420 -55 c-3 -10 -5 -4 -5 12
0 17 2 24 5 18 2 -7 2 -21 0 -30z m-2227 17 c0 -5 -5 -10 -11 -10 -5 0 -7 5
-4 10 3 6 8 10 11 10 2 0 4 -4 4 -10z m-6865 -76 c9 -9 14 -18 11 -21 -7 -7
-46 16 -46 27 0 15 17 12 35 -6z m8821 -31 c-10 -10 -19 5 -10 18 6 11 8 11
12 0 2 -7 1 -15 -2 -18z m1734 -69 c0 -14 -4 -23 -10 -19 -5 3 -10 15 -10 26
0 10 5 19 10 19 6 0 10 -12 10 -26z m2177 -36 c-3 -8 -6 -5 -6 6 -1 11 2 17 5
13 3 -3 4 -12 1 -19z m17517 -31 c-3 -9 -12 -17 -20 -17 -17 0 -19 37 -1 43
18 7 29 -7 21 -26z m-9184 -131 c-24 -22 -60 -30 -60 -13 0 18 15 25 50 26 21
1 22 -1 10 -13z m-13492 -220 c6 -27 -14 -42 -32 -27 -12 10 -13 16 -3 32 14
22 31 20 35 -5z m6542 -220 c-7 -9 -17 -16 -22 -16 -16 0 -21 30 -7 46 11 13
14 13 27 0 13 -12 13 -18 2 -30z m-5810 -62 c0 -16 -16 -19 -25 -4 -8 13 4 32
16 25 5 -4 9 -13 9 -21z m-7360 -24 c0 -5 -4 -10 -10 -10 -5 0 -10 5 -10 10 0
6 5 10 10 10 6 0 10 -4 10 -10z m528 -168 c2 -7 -3 -12 -12 -12 -9 0 -16 7
-16 16 0 17 22 14 28 -4z m-2010 -86 c3 -12 -1 -17 -10 -14 -7 3 -15 13 -16
22 -3 12 1 17 10 14 7 -3 15 -13 16 -22z m-9644 -2 c7 -19 -1 -34 -19 -34 -12
0 -25 21 -25 41 0 16 38 10 44 -7z m7386 -20 c0 -8 -4 -12 -10 -9 -5 3 -10 10
-10 16 0 5 5 9 10 9 6 0 10 -7 10 -16z m7820 -60 c0 -9 -5 -14 -12 -12 -18 6
-21 28 -4 28 9 0 16 -7 16 -16z m1915 6 c3 -5 1 -10 -4 -10 -6 0 -11 5 -11 10
0 6 2 10 4 10 3 0 8 -4 11 -10z m9445 -30 c0 -5 -5 -10 -11 -10 -5 0 -7 5 -4
10 3 6 8 10 11 10 2 0 4 -4 4 -10z m-7180 -60 c0 -5 -5 -10 -11 -10 -5 0 -7 5
-4 10 3 6 8 10 11 10 2 0 4 -4 4 -10z m-8640 -120 c0 -11 -4 -20 -10 -20 -5 0
-10 9 -10 20 0 11 5 20 10 20 6 0 10 -9 10 -20z m12795 -29 c3 -5 1 -12 -5
-16 -5 -3 -10 1 -10 9 0 18 6 21 15 7z m-10440 -91 c0 -7 -6 -15 -12 -17 -8
-3 -13 4 -13 17 0 13 5 20 13 18 6 -3 12 -11 12 -18z m22485 -82 c0 -5 -7 -8
-15 -8 -15 0 -20 21 -8 33 7 7 23 -11 23 -25z m-13303 -30 c-2 -13 -4 -5 -4
17 -1 22 1 32 4 23 2 -10 2 -28 0 -40z m-15557 -33 c0 -8 -4 -15 -9 -15 -13 0
-22 16 -14 24 11 11 23 6 23 -9z m38078 -87 c-2 -15 -11 -24 -25 -26 -25 -4
-31 16 -11 36 20 20 40 14 36 -10z m-25068 -133 c16 -19 3 -40 -16 -24 -15 13
-19 39 -5 39 5 0 14 -7 21 -15z m454 -1 c14 -5 24 -34 12 -34 -2 0 -11 -3 -19
-6 -15 -5 -31 21 -21 37 6 11 8 11 28 3z m13261 -5 c11 -17 -1 -21 -15 -4 -8
9 -8 15 -2 15 6 0 14 -5 17 -11z m-12025 -35 c0 -8 -4 -12 -10 -9 -5 3 -10 10
-10 16 0 5 5 9 10 9 6 0 10 -7 10 -16z m12150 6 c0 -5 -7 -10 -16 -10 -8 0
-12 5 -9 10 3 6 10 10 16 10 5 0 9 -4 9 -10z m-8413 -116 c7 -19 -40 -70 -56
-60 -10 6 -6 47 6 69 8 13 44 7 50 -9z m15323 -103 c0 -12 -20 -25 -27 -18 -7
7 6 27 18 27 5 0 9 -4 9 -9z m-19273 -88 c-3 -10 -5 -4 -5 12 0 17 2 24 5 18
2 -7 2 -21 0 -30z m-2987 -159 c0 -8 -4 -12 -10 -9 -5 3 -10 10 -10 16 0 5 5
9 10 9 6 0 10 -7 10 -16z m12780 -35 c0 -12 -29 -24 -37 -16 -3 4 -3 13 0 21
6 16 37 11 37 -5z m-12480 -20 c0 -5 -4 -9 -10 -9 -5 0 -10 7 -10 16 0 8 5 12
10 9 6 -3 10 -10 10 -16z m1815 2 c3 -5 1 -13 -5 -16 -15 -9 -43 3 -35 15 8
13 32 13 40 1z m2879 -7 c7 -19 -2 -37 -15 -29 -12 8 -12 45 0 45 5 0 12 -7
15 -16z m10940 -13 c3 -5 -1 -14 -9 -21 -13 -10 -15 -9 -15 9 0 21 14 28 24
12z m-824 -81 c0 -5 -7 -10 -16 -10 -8 0 -12 5 -9 10 3 6 10 10 16 10 5 0 9
-4 9 -10z m-14260 -121 c0 -6 -4 -7 -10 -4 -5 3 -10 11 -10 16 0 6 5 7 10 4 6
-3 10 -11 10 -16z m1155 -39 c3 -5 -1 -10 -10 -10 -9 0 -13 5 -10 10 3 6 8 10
10 10 2 0 7 -4 10 -10z m-5950 -60 c3 -5 1 -10 -4 -10 -6 0 -11 5 -11 10 0 6
2 10 4 10 3 0 8 -4 11 -10z m815 -130 c0 -5 -4 -10 -10 -10 -5 0 -10 5 -10 10
0 6 5 10 10 10 6 0 10 -4 10 -10z m4315 -50 c3 -5 1 -10 -4 -10 -6 0 -11 5
-11 10 0 6 2 10 4 10 3 0 8 -4 11 -10z m-11593 -32 c-9 -9 -15 -9 -24 0 -9 9
-7 12 12 12 19 0 21 -3 12 -12z m13095 -125 c-3 -10 -5 -2 -5 17 0 19 2 27 5
18 2 -10 2 -26 0 -35z m-1984 -8 c4 -8 2 -17 -3 -20 -6 -4 -10 3 -10 14 0 25
6 27 13 6z m704 -122 c-2 -16 -4 -5 -4 22 0 28 2 40 4 28 2 -13 2 -35 0 -50z
m-8923 -19 c7 -19 -12 -47 -25 -38 -5 3 -9 16 -9 30 0 27 24 33 34 8z m7791
-53 c-9 -16 -25 -3 -18 15 4 10 9 12 15 6 6 -6 7 -15 3 -21z m1132 -23 c-3 -8
-6 -5 -6 6 -1 11 2 17 5 13 3 -3 4 -12 1 -19z m758 -38 c0 -8 -8 -16 -17 -18
-13 -2 -18 3 -18 18 0 15 5 20 18 18 9 -2 17 -10 17 -18z m-5081 -38 c55 -38
57 -52 7 -52 -42 0 -71 25 -71 62 0 25 18 22 64 -10z m7476 -12 c0 -11 -7 -20
-15 -20 -8 0 -15 9 -15 20 0 11 7 20 15 20 8 0 15 -9 15 -20z m12650 3 c-1
-21 -13 -52 -20 -48 -10 6 0 55 11 55 5 0 9 -3 9 -7z m-2690 -48 c17 -21 5
-45 -23 -45 -30 0 -50 22 -41 44 8 20 47 21 64 1z m-25296 -71 c6 -17 -9 -44
-25 -44 -5 0 -9 11 -9 23 0 37 23 51 34 21z m25246 0 c0 -8 -4 -12 -10 -9 -5
3 -10 10 -10 16 0 5 5 9 10 9 6 0 10 -7 10 -16z m-2253 -16 c-3 -8 -6 -5 -6 6
-1 11 2 17 5 13 3 -3 4 -12 1 -19z m16133 -23 c0 -8 -6 -15 -14 -15 -17 0 -28
14 -19 24 12 12 33 6 33 -9z m-5344 -21 c16 -23 3 -50 -20 -41 -10 4 -16 18
-16 38 0 34 15 35 36 3z m-20286 -8 c0 -11 -19 -15 -25 -6 -3 5 1 10 9 10 9 0
16 -2 16 -4z m18700 -90 c0 -16 -18 -31 -27 -22 -8 8 5 36 17 36 5 0 10 -6 10
-14z m-27341 -115 c18 -11 5 -31 -20 -31 -12 0 -19 7 -19 20 0 21 16 26 39 11z
m1026 -181 c0 -22 -29 -18 -33 3 -3 14 1 18 15 15 10 -2 18 -10 18 -18z m7195
-40 c0 -5 -2 -10 -4 -10 -3 0 -8 5 -11 10 -3 6 -1 10 4 10 6 0 11 -4 11 -10z
m-3250 -251 c0 -11 -4 -17 -10 -14 -5 3 -10 13 -10 21 0 8 5 14 10 14 6 0 10
-9 10 -21z m4437 -64 c8 -23 -27 -56 -56 -53 -37 4 -37 25 1 48 40 24 47 25
55 5z m2281 -79 c3 -12 -1 -17 -10 -14 -7 3 -15 13 -16 22 -3 12 1 17 10 14 7
-3 15 -13 16 -22z m-3946 -28 c-6 -6 -15 -7 -22 -3 -8 5 -6 13 7 27 16 18 18
19 21 3 2 -9 -1 -22 -6 -27z m10378 2 c0 -5 -4 -10 -10 -10 -5 0 -10 5 -10 10
0 6 5 10 10 10 6 0 10 -4 10 -10z m-10420 -160 c0 -21 -15 -27 -25 -10 -7 12
2 30 16 30 5 0 9 -9 9 -20z m26018 -52 c3 -18 -20 -26 -55 -20 -25 5 -31 27
-10 36 24 10 62 1 65 -16z m-45450 -20 c18 -18 15 -28 -8 -28 -13 0 -20 7 -20
20 0 23 10 26 28 8z m18642 -195 c0 -20 -3 -24 -11 -16 -7 7 -9 19 -6 27 10
24 17 19 17 -11z m-210 -17 c0 -31 -28 -56 -40 -36 -5 8 -7 17 -6 20 2 3 6 13
9 23 10 26 37 21 37 -7z m860 -76 c0 -5 -2 -10 -4 -10 -3 0 -8 5 -11 10 -3 6
-1 10 4 10 6 0 11 -4 11 -10z m15056 -86 c7 -28 -16 -61 -35 -50 -12 8 -15 59
-4 69 14 15 33 6 39 -19z m-17466 -4 c0 -5 -2 -10 -4 -10 -3 0 -8 5 -11 10 -3
6 -1 10 4 10 6 0 11 -4 11 -10z m11045 0 c3 -5 1 -10 -4 -10 -6 0 -11 5 -11
10 0 6 2 10 4 10 3 0 8 -4 11 -10z m-13448 -87 c-22 -23 -38 -6 -26 26 9 23
11 24 26 8 16 -16 16 -18 0 -34z m4811 10 c-5 -25 -28 -28 -28 -4 0 12 6 21
16 21 9 0 14 -7 12 -17z m4838 -30 c-10 -10 -19 5 -10 18 6 11 8 11 12 0 2 -7
1 -15 -2 -18z m11914 -291 c0 -13 -23 -32 -39 -32 -11 0 -10 4 4 20 19 21 35
26 35 12z m-29490 -41 c0 -11 -4 -22 -9 -25 -12 -8 -34 21 -26 34 11 17 35 11
35 -9z m12300 -17 c0 -22 -2 -25 -15 -14 -8 7 -15 19 -15 26 0 8 7 14 15 14
10 0 15 -10 15 -26z m-8 -56 c-7 -7 -12 -8 -12 -2 0 14 12 26 19 19 2 -3 -1
-11 -7 -17z m-5377 -18 c3 -5 -1 -10 -10 -10 -9 0 -13 5 -10 10 3 6 8 10 10
10 2 0 7 -4 10 -10z m4339 -74 c-6 -16 -8 -17 -16 -2 -11 19 0 42 13 29 6 -6
7 -18 3 -27z m23153 -32 c8 -21 -12 -32 -45 -26 -64 11 -69 42 -7 42 33 0 47
-5 52 -16z m-14377 -33 c0 -6 -4 -13 -10 -16 -5 -3 -10 1 -10 9 0 9 5 16 10
16 6 0 10 -4 10 -9z m-10270 -16 c0 -8 -4 -15 -9 -15 -13 0 -22 16 -14 24 11
11 23 6 23 -9z m8218 -307 c2 -19 -1 -28 -10 -28 -20 0 -38 21 -38 43 0 32 44
18 48 -15z m1965 15 c-7 -2 -21 -2 -30 0 -10 3 -4 5 12 5 17 0 24 -2 18 -5z
m-12959 -148 c17 -13 17 -15 3 -21 -25 -9 -51 0 -55 19 -4 21 25 22 52 2z
m7544 -103 c-12 -5 -39 19 -33 29 3 4 14 1 23 -9 10 -9 14 -19 10 -20z m-4671
-4 c-3 -8 -6 -5 -6 6 -1 11 2 17 5 13 3 -3 4 -12 1 -19z m-1952 2 c3 -6 -1
-13 -10 -16 -19 -8 -30 0 -20 15 8 14 22 14 30 1z m16275 -31 c0 -20 -24 -26
-35 -9 -3 6 -3 19 0 31 5 16 10 18 21 8 8 -6 14 -20 14 -30z m-13410 -17 c-1
-75 -71 -115 -78 -44 -3 26 1 34 22 41 13 6 27 19 31 31 10 31 25 14 25 -28z
m1062 -17 c0 -5 -5 -11 -11 -13 -6 -2 -11 4 -11 13 0 9 5 15 11 13 6 -2 11 -8
11 -13z m-2812 -25 c0 -5 -9 -10 -20 -10 -11 0 -20 5 -20 10 0 6 9 10 20 10
11 0 20 -4 20 -10z m-1010 -41 c0 -11 -4 -17 -10 -14 -5 3 -10 13 -10 21 0 8
5 14 10 14 6 0 10 -9 10 -21z m19276 -8 c-4 -6 -14 -11 -22 -11 -12 0 -13 4
-3 21 7 14 14 18 21 11 6 -6 7 -15 4 -21z m-11029 -53 c-3 -8 -6 -5 -6 6 -1
11 2 17 5 13 3 -3 4 -12 1 -19z m2273 -8 c0 -11 -7 -20 -15 -20 -15 0 -21 21
-8 33 12 13 23 7 23 -13z m-3202 -133 c-2 -11 -8 -22 -15 -24 -14 -5 -28 40
-18 57 10 17 37 -9 33 -33z m5432 28 c0 -8 -4 -15 -10 -15 -5 0 -10 7 -10 15
0 8 5 15 10 15 6 0 10 -7 10 -15z m-1514 -6 c3 -6 1 -16 -5 -22 -9 -9 -14 -8
-21 3 -9 15 -4 30 10 30 5 0 12 -5 16 -11z m-1338 -34 c3 -26 -13 -50 -27 -41
-6 4 -11 21 -11 37 0 24 4 30 18 27 9 -2 18 -12 20 -23z m-10518 -25 c0 -5 -4
-10 -10 -10 -5 0 -10 5 -10 10 0 6 5 10 10 10 6 0 10 -4 10 -10z m5997 -17
c-8 -7 -37 9 -31 19 3 5 12 4 20 -3 8 -6 13 -14 11 -16z m-25760 -29 c-3 -3
-12 -4 -19 -1 -8 3 -5 6 6 6 11 1 17 -2 13 -5z m23323 -138 c0 -2 -7 -6 -15
-10 -8 -3 -15 -1 -15 4 0 6 7 10 15 10 8 0 15 -2 15 -4z m10833 -13 c3 -5 8
-23 12 -40 6 -29 4 -33 -14 -33 -27 0 -47 45 -30 66 13 15 25 18 32 7z m-3931
-38 c0 -5 -5 -11 -11 -13 -6 -2 -11 4 -11 13 0 9 5 15 11 13 6 -2 11 -8 11
-13z m-2491 -38 c-1 -12 -15 -9 -19 4 -3 6 1 10 8 8 6 -3 11 -8 11 -12z
m-8302 -133 c3 -16 1 -17 -13 -5 -19 16 -21 34 -3 29 6 -3 14 -13 16 -24z
m5111 6 c13 -9 12 -12 -4 -25 -14 -11 -23 -12 -33 -4 -32 28 1 53 37 29z
m-2051 -125 c50 -58 96 -105 102 -105 5 0 13 -10 18 -22 10 -26 259 -319 289
-340 10 -7 21 -18 23 -25 2 -7 42 -57 88 -112 77 -91 86 -98 107 -89 13 6 30
8 39 4 16 -6 16 -8 1 -31 -23 -35 -20 -42 22 -64 20 -10 37 -23 37 -27 0 -5 7
-8 16 -7 12 2 15 -4 11 -22 -3 -19 6 -36 39 -73 23 -26 53 -53 65 -59 13 -7
26 -23 29 -35 4 -13 36 -51 71 -85 35 -34 64 -69 64 -78 0 -9 15 -31 33 -48
18 -18 54 -58 82 -89 39 -45 57 -58 87 -63 35 -6 38 -9 38 -41 0 -28 3 -33 21
-31 16 1 27 -10 48 -50 15 -30 33 -52 43 -52 32 -1 48 -13 48 -36 0 -16 9 -26
30 -35 18 -7 30 -20 30 -30 0 -24 71 -100 93 -100 9 0 17 -6 17 -12 0 -7 9
-24 20 -38 19 -25 19 -25 34 -5 14 17 17 18 26 5 6 -8 8 -24 5 -36 -8 -36 52
-69 117 -65 32 2 67 90 74 187 3 49 8 92 10 95 2 4 4 58 5 120 0 63 6 123 12
134 13 22 16 181 16 903 l1 472 405 0 405 0 0 -940 c0 -620 3 -940 10 -940 6
0 10 10 10 22 0 17 3 19 12 10 9 -9 9 -17 -1 -35 -7 -12 -13 -30 -15 -40 -1
-9 -5 -20 -9 -23 -11 -11 -8 -81 5 -109 9 -19 8 -30 -1 -48 -13 -24 -10 -201
4 -264 5 -22 4 -33 -4 -33 -14 0 -15 -306 -1 -315 13 -8 13 -58 -1 -72 -7 -7
-9 -41 -5 -94 7 -112 7 -111 2 -214 -3 -53 0 -95 6 -102 7 -9 7 -23 -1 -44
-18 -52 -14 -96 9 -102 26 -7 26 -37 -1 -44 -19 -5 -20 -12 -19 -157 1 -83 1
-233 1 -333 l-1 -183 -108 0 -108 0 -215 238 c-199 220 -217 237 -248 237 -38
0 -53 21 -28 40 14 10 0 30 -104 146 -82 91 -127 134 -141 134 -21 0 -56 45
-57 75 -1 8 -34 50 -74 92 -39 43 -97 107 -127 143 -30 36 -65 70 -78 75 -12
5 -26 20 -31 32 -11 28 -97 120 -128 137 -13 6 -23 17 -23 24 0 6 -39 51 -87
99 -60 60 -95 88 -111 88 -13 0 -21 4 -17 9 3 5 -22 38 -55 73 -33 35 -60 57
-60 51 0 -18 -25 -16 -40 2 -7 9 -13 30 -14 48 -1 42 -28 47 -61 11 -21 -23
-30 -26 -43 -18 -9 6 -18 18 -20 27 -3 13 3 15 34 10 l36 -6 -27 49 c-33 60
-53 82 -63 69 -4 -5 -27 -11 -51 -12 -24 -1 -55 -7 -69 -14 -21 -12 -24 -19
-19 -56 4 -40 0 -48 -26 -44 -19 3 -18 -33 2 -59 26 -36 26 -37 -5 -53 -22
-11 -26 -21 -28 -60 -1 -33 2 -47 11 -47 7 0 13 -4 13 -10 0 -5 -6 -10 -14
-10 -19 0 -26 -57 -9 -71 15 -13 18 -33 3 -24 -18 11 -32 -111 -19 -160 5 -16
5 -43 0 -60 -5 -19 -4 -43 4 -65 9 -28 9 -42 -2 -67 -15 -38 -17 -109 -3 -118
6 -3 10 -15 10 -26 0 -10 -4 -19 -10 -19 -6 0 -10 -130 -10 -369 0 -202 -3
-389 -6 -415 l-7 -46 -396 2 -396 3 -2 445 c-2 308 -6 452 -14 467 -9 16 -9
30 0 54 7 19 11 106 11 220 l0 187 -35 12 c-19 6 -35 17 -35 24 0 8 -9 25 -20
39 -40 51 -17 63 42 22 20 -14 39 -25 42 -25 11 0 6 28 -5 32 -7 2 -7 12 0 29
11 30 13 216 3 223 -4 3 -7 55 -7 116 1 61 -2 113 -7 116 -13 8 -9 41 7 54 20
16 22 206 3 212 -10 4 -10 10 0 32 14 31 16 116 3 116 -5 0 -11 14 -15 32 -3
17 -15 37 -26 45 -26 18 -28 58 -2 48 40 -17 47 -11 50 38 2 27 -1 54 -6 60
-6 7 -7 30 -3 52 4 24 2 60 -6 90 -11 43 -11 52 2 61 20 15 22 303 3 335 -10
17 -10 23 0 26 15 6 18 213 2 213 -5 0 -10 9 -10 21 0 11 5 17 10 14 7 -4 10
94 10 287 0 161 3 310 6 331 l7 37 102 0 101 0 93 -105z m10425 34 c-3 -5 -1
-9 4 -9 39 0 281 -22 337 -31 472 -74 848 -278 1150 -624 48 -55 91 -101 96
-103 5 -2 9 -9 9 -16 0 -6 29 -56 65 -111 36 -54 65 -101 65 -104 0 -4 22 -56
49 -116 52 -117 108 -282 137 -405 9 -41 21 -82 25 -90 4 -8 13 -102 20 -209
40 -624 -143 -1183 -518 -1583 -35 -37 -63 -72 -63 -78 0 -5 -5 -10 -10 -10
-6 0 -39 -24 -73 -53 -217 -184 -450 -305 -737 -382 -201 -54 -326 -67 -710
-72 -246 -3 -362 -8 -379 -16 -19 -9 -25 -9 -28 0 -3 9 -85 12 -321 13 -240 0
-318 3 -324 13 -4 6 -8 164 -8 350 0 284 -2 343 -15 368 -14 26 -14 30 -1 35
12 5 15 40 14 222 -1 131 -5 220 -11 223 -6 5 -6 18 2 39 14 43 14 115 -1 139
-9 14 -9 34 -1 77 16 90 18 965 2 975 -11 6 -11 12 -1 31 10 18 12 143 8 538
-2 283 -4 524 -4 535 -3 75 15 422 21 433 6 9 133 12 578 12 539 0 570 1 587
18 11 13 21 16 29 9 7 -5 10 -13 7 -18z m-3854 -13 c518 -31 915 -176 1239
-456 43 -37 87 -70 97 -72 11 -2 19 -10 19 -19 0 -22 123 -161 156 -177 18 -9
25 -19 22 -32 -3 -10 12 -42 35 -76 56 -82 134 -232 177 -339 19 -49 40 -98
45 -107 6 -10 10 -27 10 -38 0 -11 6 -23 14 -26 7 -3 14 -17 13 -32 0 -47 30
-160 47 -177 19 -19 21 -42 5 -47 -8 -3 -8 -20 1 -63 7 -33 15 -64 19 -70 3
-5 6 -41 7 -80 0 -38 3 -92 7 -120 3 -27 9 -77 12 -110 4 -37 11 -63 20 -68 8
-4 15 -15 15 -24 0 -11 -8 -14 -29 -11 -27 4 -30 1 -33 -29 -3 -21 1 -38 10
-45 12 -10 11 -14 -4 -25 -20 -15 -32 -107 -15 -117 16 -10 14 -26 -4 -26 -8
0 -17 -12 -21 -27 -53 -234 -96 -359 -179 -529 -211 -427 -559 -744 -995 -907
-251 -93 -446 -126 -805 -134 -213 -4 -263 -8 -277 -21 -16 -14 -20 -13 -37 2
-26 23 -220 21 -238 -3 -10 -15 -12 -14 -18 2 -6 14 -20 17 -86 17 -45 0 -88
-5 -99 -12 -15 -10 -22 -10 -32 0 -8 8 -63 12 -190 12 l-178 0 0 229 c0 185
-3 230 -14 234 -15 6 -10 57 5 57 5 0 9 316 9 735 0 465 -4 735 -10 735 -14 0
-31 37 -24 54 3 9 12 16 20 16 10 0 13 26 13 123 -1 70 -5 125 -11 128 -7 4
-6 13 1 27 18 34 14 248 -6 300 -16 42 -16 45 0 57 23 16 24 160 2 189 -19 25
-19 52 0 60 13 5 15 70 15 516 0 281 2 515 5 521 4 5 219 9 548 9 310 0 548 4
556 9 8 5 22 6 30 1 9 -4 68 -11 131 -14z m-9530 -226 c69 -127 128 -230 133
-230 4 0 7 -7 7 -15 0 -8 4 -15 9 -15 5 0 17 -18 27 -40 10 -22 25 -42 35 -45
9 -3 22 -19 29 -36 8 -18 27 -37 49 -47 31 -15 37 -23 42 -59 6 -50 24 -73 55
-73 12 0 30 -8 39 -17 10 -9 31 -18 48 -20 17 -2 41 -10 54 -18 33 -22 38 -20
78 36 40 56 40 89 1 89 -28 0 -52 25 -62 64 -6 26 -5 27 13 18 11 -6 25 -18
33 -26 16 -20 27 -20 47 0 14 13 14 19 2 41 -8 14 -20 28 -29 31 -21 8 -60 50
-60 65 0 7 8 3 18 -9 17 -20 91 -55 143 -67 23 -6 28 -1 52 49 15 30 27 62 27
72 0 10 16 35 35 56 37 40 38 43 39 91 1 21 8 33 24 40 15 7 48 58 99 153 l76
142 474 0 475 0 -20 -32 c-75 -125 -212 -369 -212 -377 0 -5 -6 -16 -13 -23
-7 -7 -51 -78 -98 -158 -54 -94 -84 -156 -84 -175 0 -22 -4 -30 -17 -29 -21 2
-98 -129 -95 -161 1 -11 -6 -24 -18 -29 -11 -5 -47 -56 -81 -114 -58 -100 -60
-107 -50 -143 11 -42 4 -58 -18 -40 -11 9 -15 8 -19 -4 -4 -8 0 -21 9 -27 38
-33 44 -41 44 -64 0 -22 -3 -24 -22 -18 -13 3 -35 13 -50 20 -15 8 -32 14 -37
14 -17 0 -43 -59 -39 -88 2 -22 -2 -28 -20 -30 -27 -4 -44 -41 -40 -86 3 -26
-1 -31 -24 -36 -20 -4 -34 -19 -57 -61 -90 -170 -78 -285 50 -471 11 -15 19
-36 19 -46 0 -10 11 -29 25 -42 14 -13 25 -29 25 -35 0 -18 59 -126 84 -155
12 -14 41 -65 65 -113 32 -64 54 -95 82 -115 31 -22 39 -35 45 -72 4 -25 13
-49 21 -55 7 -5 15 -19 17 -31 2 -11 31 -65 63 -120 33 -54 153 -258 267 -452
124 -210 212 -349 218 -345 7 3 8 1 4 -5 -4 -6 0 -24 8 -39 12 -24 15 -26 21
-11 9 24 21 15 45 -35 26 -53 27 -75 3 -56 -9 8 0 -16 20 -52 20 -36 37 -69
37 -72 0 -4 -65 -7 -145 -7 -126 0 -145 -2 -145 -16 0 -9 -6 -14 -12 -11 -7 2
-12 10 -11 16 2 8 -83 11 -310 11 l-313 0 -84 148 c-70 123 -88 147 -108 149
-13 0 -31 8 -40 17 -14 14 -14 16 2 22 10 4 25 -1 38 -12 l22 -19 -15 25 c-9
14 -58 100 -109 193 -90 162 -94 167 -115 153 -14 -10 -27 -11 -38 -4 -28 15
-21 38 13 38 17 0 30 3 30 8 -1 4 -15 32 -33 62 -22 35 -42 56 -58 60 -17 4
-24 13 -24 31 0 14 -8 33 -17 43 -10 10 -18 24 -18 32 0 9 -17 33 -37 54 -66
68 -88 93 -86 101 5 15 -50 49 -79 49 -22 0 -31 -6 -35 -21 -3 -12 -11 -18
-19 -15 -8 3 -20 8 -28 12 -13 5 -31 -14 -102 -110 -30 -41 -35 -53 -25 -68
15 -24 14 -28 -8 -28 -12 0 -27 -15 -40 -40 -26 -50 -26 -58 -1 -90 11 -14 20
-28 20 -32 0 -15 -41 -8 -46 7 -4 8 -17 15 -30 15 -22 0 -28 -9 -25 -36 1 -7
-5 -14 -12 -17 -17 -6 -77 -110 -77 -132 0 -9 9 -25 19 -37 24 -25 17 -46 -13
-41 -29 6 -73 -21 -82 -50 -4 -12 -13 -27 -20 -35 -9 -8 -12 -23 -8 -38 5 -19
2 -24 -13 -24 -14 0 -41 -39 -105 -152 -47 -84 -93 -168 -102 -185 l-17 -33
-485 0 c-426 0 -485 2 -480 15 5 14 222 386 525 899 78 132 141 245 141 252 0
7 4 14 9 16 6 2 32 41 59 88 27 47 77 131 110 187 54 91 59 104 44 112 -19 11
-8 27 22 33 22 4 94 113 95 144 1 12 7 24 15 27 8 3 26 29 40 57 15 29 35 63
46 77 19 24 19 25 0 46 -26 27 -26 51 -1 44 16 -4 23 4 35 34 19 47 21 116 4
122 -10 4 -10 8 0 23 22 34 25 45 15 67 -6 12 -16 33 -22 47 -6 14 -15 32 -20
40 -9 14 -126 219 -180 313 -135 238 -224 384 -241 395 -11 7 -18 17 -15 22
11 17 -18 23 -31 6 -11 -16 -14 -14 -23 20 -11 41 -6 58 16 50 8 -3 12 -2 10
2 -2 4 -63 108 -134 232 -223 385 -353 612 -353 616 0 2 217 4 483 4 l482 -1
125 -229z m7354 224 c14 -5 16 -48 16 -373 0 -272 3 -370 12 -379 9 -9 9 -15
0 -24 -15 -15 -15 -51 0 -66 9 -9 9 -19 0 -45 -16 -44 -16 -945 0 -964 7 -9 7
-17 -1 -27 -14 -17 -15 -416 -1 -416 6 0 10 -7 10 -15 0 -8 -5 -15 -11 -15 -7
0 -10 -21 -9 -57 1 -32 2 -406 1 -830 l-1 -773 -400 0 -400 0 0 204 c0 154 -3
205 -12 209 -10 3 -10 9 0 26 10 16 12 217 12 934 -1 897 -1 913 -20 925 -23
14 -27 62 -6 62 8 0 16 -8 19 -17 2 -10 5 143 6 340 1 239 -2 356 -9 352 -5
-3 -10 1 -10 9 0 8 4 17 10 21 5 3 9 180 10 456 0 248 2 455 6 460 6 10 752
13 778 3z m9396 -166 c514 -865 577 -964 621 -975 10 -3 19 -9 19 -14 0 -18
61 -40 91 -34 42 9 93 54 79 70 -11 14 10 37 38 41 20 3 56 49 107 135 175
297 561 936 569 942 13 9 951 5 961 -4 7 -8 40 45 -1066 -1696 -148 -233 -269
-430 -269 -438 0 -8 -9 -23 -20 -33 -20 -18 -20 -34 -22 -913 l-3 -894 -395 0
-395 0 -5 900 -5 900 -224 353 c-122 193 -229 352 -237 352 -8 0 -14 10 -14
22 0 11 -73 136 -162 277 -89 141 -225 357 -303 481 -78 124 -207 329 -288
457 l-146 232 57 4 c31 2 249 4 483 5 l426 2 103 -172z m-33272 144 c3 -9 -2
-13 -14 -10 -9 1 -19 9 -22 16 -3 9 2 13 14 10 9 -1 19 -9 22 -16z m37952 -42
c0 -5 -4 -10 -9 -10 -6 0 -13 5 -16 10 -3 6 1 10 9 10 9 0 16 -4 16 -10z
m-10330 -110 c0 -5 -4 -10 -10 -10 -5 0 -10 5 -10 10 0 6 5 10 10 10 6 0 10
-4 10 -10z m15900 -25 c0 -8 -4 -15 -10 -15 -5 0 -10 7 -10 15 0 8 5 15 10 15
6 0 10 -7 10 -15z m-26910 -39 c-13 -13 -35 7 -25 24 5 8 11 8 21 -1 10 -8 12
-15 4 -23z m6267 -8 c-3 -8 -6 -5 -6 6 -1 11 2 17 5 13 3 -3 4 -12 1 -19z
m4493 2 c0 -11 -7 -20 -15 -20 -15 0 -21 21 -8 33 12 13 23 7 23 -13z m-4429
-33 c-1 -12 -15 -9 -19 4 -3 6 1 10 8 8 6 -3 11 -8 11 -12z m-7681 -22 c0 -8
-4 -15 -10 -15 -5 0 -10 7 -10 15 0 8 5 15 10 15 6 0 10 -7 10 -15z m1769
-120 c17 -20 31 -39 31 -44 0 -17 -13 -18 -41 -3 -20 12 -27 22 -23 35 3 9 1
17 -4 17 -6 0 -12 7 -16 15 -10 28 21 16 53 -20z m25392 -51 c11 -14 10 -18
-6 -30 -24 -18 -34 -18 -41 1 -15 38 21 60 47 29z m-29673 -16 c-3 -7 -15 -14
-29 -16 -23 -2 -23 -2 -5 13 24 18 39 20 34 3z m11472 -20 c0 -16 -3 -19 -11
-11 -6 6 -8 16 -5 22 11 17 16 13 16 -11z m-7390 -54 c0 -8 -4 -12 -10 -9 -5
3 -10 10 -10 16 0 5 5 9 10 9 6 0 10 -7 10 -16z m10720 -14 c0 -5 -4 -10 -9
-10 -6 0 -13 5 -16 10 -3 6 1 10 9 10 9 0 16 -4 16 -10z m-18050 -24 c0 -2 -7
-6 -15 -10 -8 -3 -15 -1 -15 4 0 6 7 10 15 10 8 0 15 -2 15 -4z m9400 0 c0
-11 -19 -15 -25 -6 -3 5 1 10 9 10 9 0 16 -2 16 -4z m19480 -18 c0 -13 -4 -29
-9 -37 -13 -21 -61 2 -61 28 0 21 13 29 48 30 16 1 22 -5 22 -21z m-2930 -3
c0 -8 -4 -15 -10 -15 -5 0 -10 7 -10 15 0 8 5 15 10 15 6 0 10 -7 10 -15z
m-7870 -21 c0 -16 -16 -19 -25 -4 -8 13 4 32 16 25 5 -4 9 -13 9 -21z m-9148
-19 c0 -5 -5 -11 -11 -13 -6 -2 -11 4 -11 13 0 9 5 15 11 13 6 -2 11 -8 11
-13z m10234 -46 c8 -14 -18 -31 -30 -19 -9 9 0 30 14 30 5 0 12 -5 16 -11z
m-25717 -389 c116 -449 277 -634 661 -760 116 -39 374 -101 473 -115 26 -4 47
-11 47 -15 0 -4 -33 -12 -72 -19 -115 -19 -385 -86 -483 -121 -364 -129 -514
-313 -630 -773 -23 -95 -51 -216 -61 -269 -10 -54 -19 -96 -21 -95 -1 2 -18
79 -37 173 -138 665 -293 859 -807 1004 -77 22 -202 52 -279 67 -77 15 -140
30 -140 33 0 4 80 23 178 43 311 63 525 144 667 250 181 136 288 364 380 808
19 94 35 173 36 177 0 4 16 -63 34 -148 18 -85 42 -193 54 -240z m45226 205
c153 -718 320 -894 990 -1040 284 -63 274 -53 94 -90 -486 -101 -705 -205
-844 -400 -101 -142 -179 -358 -246 -686 l-33 -162 -33 159 c-157 757 -334
937 -1075 1087 -87 18 -158 34 -158 37 0 3 53 16 118 29 397 78 635 172 788
313 141 130 248 387 330 796 16 78 30 139 31 135 1 -4 19 -84 38 -178z
m-29725 155 c0 -5 -2 -10 -4 -10 -3 0 -8 5 -11 10 -3 6 -1 10 4 10 6 0 11 -4
11 -10z m2915 -329 c3 -5 1 -12 -5 -16 -5 -3 -10 1 -10 9 0 18 6 21 15 7z
m6585 -81 c0 -5 -4 -10 -10 -10 -5 0 -10 5 -10 10 0 6 5 10 10 10 6 0 10 -4
10 -10z m-9230 -40 c0 -5 -2 -10 -4 -10 -3 0 -8 5 -11 10 -3 6 -1 10 4 10 6 0
11 -4 11 -10z m-16173 -6 c-3 -3 -12 -4 -19 -1 -8 3 -5 6 6 6 11 1 17 -2 13
-5z m25483 -96 c0 -7 -4 -19 -9 -27 -12 -19 -51 -4 -51 20 0 14 7 19 30 19 17
0 30 -5 30 -12z m-11971 -72 c-9 -9 -50 25 -43 36 4 6 14 2 27 -11 12 -11 19
-23 16 -25z m71 -31 c10 -12 9 -15 -8 -15 -11 0 -25 7 -32 15 -10 12 -9 15 8
15 11 0 25 -7 32 -15z m2947 -30 c7 -20 0 -27 -20 -19 -25 9 -30 34 -6 34 11
0 22 -7 26 -15z m-4147 -45 c0 -5 -2 -10 -4 -10 -3 0 -8 5 -11 10 -3 6 -1 10
4 10 6 0 11 -4 11 -10z m5954 -11 c-3 -5 -10 -7 -15 -3 -5 3 -7 10 -3 15 3 5
10 7 15 3 5 -3 7 -10 3 -15z m-7940 -90 c-8 -14 -24 -10 -24 6 0 9 6 12 15 9
8 -4 12 -10 9 -15z m5646 -44 c0 -8 -4 -15 -9 -15 -13 0 -22 16 -14 24 11 11
23 6 23 -9z m14221 -136 c7 -14 6 -19 -4 -19 -21 0 -51 26 -43 38 9 15 34 4
47 -19z m-11501 1 c0 -9 -50 -23 -57 -16 -3 2 -3 8 0 13 7 10 57 13 57 3z
m-2673 -16 c-3 -3 -12 -4 -19 -1 -8 3 -5 6 6 6 11 1 17 -2 13 -5z m-252 -24
c3 -5 -3 -10 -14 -10 -12 0 -21 5 -21 10 0 6 6 10 14 10 8 0 18 -4 21 -10z
m28405 -26 c0 -8 -7 -14 -15 -14 -15 0 -21 21 -9 33 10 9 24 -2 24 -19z
m-30496 -19 c-4 -8 -8 -15 -10 -15 -2 0 -4 7 -4 15 0 8 4 15 10 15 5 0 7 -7 4
-15z m11756 -60 c0 -8 -4 -15 -10 -15 -5 0 -10 7 -10 15 0 8 5 15 10 15 6 0
10 -7 10 -15z m-5125 -72 c35 -36 43 -72 18 -80 -16 -6 -93 77 -93 99 0 30 36
21 75 -19z m-4711 -36 c15 -24 -3 -35 -20 -13 -8 11 -14 24 -14 29 0 13 22 3
34 -16z m9806 3 c0 -5 -7 -10 -16 -10 -8 0 -12 5 -9 10 3 6 10 10 16 10 5 0 9
-4 9 -10z m-9432 -59 c3 -8 -1 -12 -9 -9 -7 2 -15 10 -17 17 -3 8 1 12 9 9 7
-2 15 -10 17 -17z m-838 -20 c0 -6 -4 -13 -10 -16 -5 -3 -10 1 -10 9 0 9 5 16
10 16 6 0 10 -4 10 -9z m537 -35 c-4 -9 -10 -16 -16 -16 -11 0 -22 40 -14 53
9 14 36 -20 30 -37z m-2117 -76 c0 -5 -4 -10 -9 -10 -6 0 -13 5 -16 10 -3 6 1
10 9 10 9 0 16 -4 16 -10z m-525 -49 c7 -12 -12 -24 -25 -16 -11 7 -4 25 10
25 5 0 11 -4 15 -9z m7203 -18 c2 -8 -6 -13 -22 -13 -17 0 -26 5 -26 16 0 19
41 16 48 -3z m1142 2 c0 -8 -4 -15 -10 -15 -5 0 -10 7 -10 15 0 8 5 15 10 15
6 0 10 -7 10 -15z m-5340 -91 c0 -17 -46 -48 -60 -39 -19 12 -11 51 13 62 24
12 47 0 47 -23z m-5460 11 c10 -12 10 -15 -3 -15 -8 0 -20 7 -27 15 -10 12
-10 15 3 15 8 0 20 -7 27 -15z m14940 -5 c0 -5 -4 -10 -10 -10 -5 0 -10 5 -10
10 0 6 5 10 10 10 6 0 10 -4 10 -10z m-5820 -116 c0 -9 -5 -14 -12 -12 -18 6
-21 28 -4 28 9 0 16 -7 16 -16z m450 -193 c0 -24 -30 -55 -41 -44 -12 12 12
63 29 63 6 0 12 -9 12 -19z m-285 -11 c3 -5 1 -10 -4 -10 -6 0 -11 5 -11 10 0
6 2 10 4 10 3 0 8 -4 11 -10z m-2398 -62 c-3 -7 -5 -2 -5 12 0 14 2 19 5 13 2
-7 2 -19 0 -25z m3913 13 c0 -6 -4 -13 -10 -16 -5 -3 -10 1 -10 9 0 9 5 16 10
16 6 0 10 -4 10 -9z m467 -127 c-3 -3 -12 -4 -19 -1 -8 3 -5 6 6 6 11 1 17 -2
13 -5z m-7387 -144 c0 -5 -5 -10 -11 -10 -5 0 -7 5 -4 10 3 6 8 10 11 10 2 0
4 -4 4 -10z m5881 -15 c-1 -15 -24 -12 -29 3 -3 9 2 13 12 10 10 -1 17 -7 17
-13z m-4741 -35 c0 -5 -4 -10 -10 -10 -5 0 -10 5 -10 10 0 6 5 10 10 10 6 0
10 -4 10 -10z m-4987 -17 c-7 -2 -19 -2 -25 0 -7 3 -2 5 12 5 14 0 19 -2 13
-5z m25123 -159 c-5 -13 -10 -14 -18 -6 -6 6 -8 18 -4 28 5 13 10 14 18 6 6
-6 8 -18 4 -28z m-17516 11 c17 -20 5 -45 -20 -45 -11 0 -23 7 -26 15 -6 15
11 45 26 45 4 0 13 -7 20 -15z m3077 -22 c-3 -10 -5 -4 -5 12 0 17 2 24 5 18
2 -7 2 -21 0 -30z m-13122 -23 c3 -5 -3 -10 -15 -10 -12 0 -18 5 -15 10 3 6
10 10 15 10 5 0 12 -4 15 -10z m-5521 -69 c3 -5 0 -11 -8 -14 -15 -6 -26 1
-26 15 0 11 27 10 34 -1z m11436 -27 c0 -31 -23 -28 -28 4 -2 15 2 22 12 22
11 0 16 -9 16 -26z m490 -4 c0 -5 -4 -10 -10 -10 -5 0 -10 5 -10 10 0 6 5 10
10 10 6 0 10 -4 10 -10z m4090 -5 c0 -19 -43 -40 -64 -32 -24 9 -19 35 7 40
44 9 57 7 57 -8z m14737 -31 c8 -21 -13 -42 -28 -27 -13 13 -5 43 11 43 6 0
13 -7 17 -16z m-18657 -14 c0 -5 -2 -10 -4 -10 -3 0 -8 5 -11 10 -3 6 -1 10 4
10 6 0 11 -4 11 -10z m5690 -35 c0 -8 -4 -15 -10 -15 -5 0 -10 7 -10 15 0 8 5
15 10 15 6 0 10 -7 10 -15z m-14182 -78 c2 -12 -3 -17 -17 -17 -15 0 -21 6
-21 21 0 25 33 22 38 -4z m15127 3 c0 -7 -6 -15 -12 -17 -8 -3 -13 4 -13 17 0
13 5 20 13 18 6 -3 12 -11 12 -18z m-5445 -20 c0 -5 -4 -10 -9 -10 -6 0 -13 5
-16 10 -3 6 1 10 9 10 9 0 16 -4 16 -10z m6117 -12 c-3 -8 -6 -5 -6 6 -1 11 2
17 5 13 3 -3 4 -12 1 -19z m-3462 -18 c0 -22 -29 -18 -33 3 -3 14 1 18 15 15
10 -2 18 -10 18 -18z m20205 -8 c0 -49 -50 -96 -63 -59 -6 16 35 87 51 87 7 0
12 -12 12 -28z m-24750 -47 c0 -8 -4 -15 -9 -15 -13 0 -22 16 -14 24 11 11 23
6 23 -9z m7740 -190 c0 -16 -35 -21 -44 -6 -8 12 4 21 26 21 10 0 18 -7 18
-15z m14789 -69 c9 -10 8 -15 -4 -20 -10 -4 -15 1 -15 14 0 24 4 25 19 6z
m-21601 -30 c3 -12 -1 -17 -10 -14 -7 3 -15 13 -16 22 -3 12 1 17 10 14 7 -3
15 -13 16 -22z m24922 2 c0 -13 -23 -5 -28 10 -2 7 2 10 12 6 9 -3 16 -11 16
-16z m-11000 -18 c0 -13 -7 -20 -19 -20 -25 0 -38 20 -20 31 23 15 39 10 39
-11z m-503 -26 c-3 -3 -12 -4 -19 -1 -8 3 -5 6 6 6 11 1 17 -2 13 -5z m-14119
-17 c11 -13 11 -41 1 -52 -10 -10 -41 34 -36 50 8 18 21 19 35 2z m7082 -57
c0 -5 -7 -10 -15 -10 -8 0 -15 5 -15 10 0 6 7 10 15 10 8 0 15 -4 15 -10z
m5999 -4 c9 -10 8 -15 -4 -20 -22 -8 -45 3 -38 20 7 18 27 18 42 0z m-11389
-50 c-13 -13 -35 7 -25 24 5 8 11 8 21 -1 10 -8 12 -15 4 -23z m485 14 c3 -5
2 -10 -4 -10 -5 0 -13 5 -16 10 -3 6 -2 10 4 10 5 0 13 -4 16 -10z m14495 -10
c0 -5 -7 -10 -15 -10 -8 0 -15 5 -15 10 0 6 7 10 15 10 8 0 15 -4 15 -10z
m-4270 -10 c0 -5 -7 -10 -15 -10 -8 0 -15 5 -15 10 0 6 7 10 15 10 8 0 15 -4
15 -10z m-14502 -37 c10 -10 10 -13 1 -13 -15 0 -49 29 -49 43 0 9 19 -3 48
-30z m3386 -6 c6 -9 7 -19 3 -23 -9 -9 -37 15 -37 33 0 18 20 12 34 -10z
m9114 -1 c3 -12 -1 -17 -10 -14 -7 3 -15 13 -16 22 -3 12 1 17 10 14 7 -3 15
-13 16 -22z m-9278 -36 c0 -5 -4 -10 -10 -10 -5 0 -10 5 -10 10 0 6 5 10 10
10 6 0 10 -4 10 -10z m12956 -1 c3 -6 2 -15 -3 -20 -13 -13 -43 -1 -43 17 0
16 36 19 46 3z m-15944 -31 c-9 -9 -15 -9 -24 0 -9 9 -7 12 12 12 19 0 21 -3
12 -12z m10318 -93 c0 -8 -4 -15 -10 -15 -5 0 -10 7 -10 15 0 8 5 15 10 15 6
0 10 -7 10 -15z m510 -85 c0 -5 -5 -12 -11 -16 -14 -8 -33 11 -25 25 7 11 36
4 36 -9z m-8660 -5 c0 -8 -2 -15 -4 -15 -2 0 -6 7 -10 15 -3 8 -1 15 4 15 6 0
10 -7 10 -15z m-1260 -25 c6 -11 7 -20 2 -20 -10 0 -32 21 -32 32 0 16 19 8
30 -12z m12150 10 c0 -5 -5 -10 -11 -10 -5 0 -7 5 -4 10 3 6 8 10 11 10 2 0 4
-4 4 -10z m-9570 -26 c0 -8 -4 -14 -10 -14 -5 0 -10 9 -10 21 0 11 5 17 10 14
6 -3 10 -13 10 -21z m4517 4 c-3 -8 -6 -5 -6 6 -1 11 2 17 5 13 3 -3 4 -12 1
-19z m-4293 -44 c23 -9 20 -34 -3 -34 -22 0 -35 15 -26 30 7 12 8 12 29 4z
m-2716 -53 c6 -8 12 -18 12 -23 0 -4 -6 -8 -12 -8 -13 0 -58 59 -58 75 0 8 36
-19 58 -44z m10233 16 c-1 -12 -15 -9 -19 4 -3 6 1 10 8 8 6 -3 11 -8 11 -12z
m-8281 -45 c0 -7 -4 -10 -10 -7 -5 3 -10 16 -10 28 0 18 2 19 10 7 5 -8 10
-21 10 -28z m1378 -29 c6 -19 -28 -29 -39 -12 -5 8 -9 18 -9 22 0 13 43 3 48
-10z m-2968 -90 c-1 -11 -40 37 -40 49 0 6 9 -1 20 -15 11 -14 20 -29 20 -34z
m8710 -27 c0 -8 -4 -17 -9 -21 -12 -7 -24 12 -16 25 9 15 25 12 25 -4z
m-11535 -6 c3 -5 1 -10 -4 -10 -6 0 -11 5 -11 10 0 6 2 10 4 10 3 0 8 -4 11
-10z m14024 -14 c9 -10 8 -16 -4 -26 -20 -16 -45 -6 -45 20 0 23 31 28 49 6z
m-10609 -27 c0 -5 -4 -9 -10 -9 -5 0 -10 7 -10 16 0 8 5 12 10 9 6 -3 10 -10
10 -16z m16520 -130 c0 -24 -23 -21 -28 4 -2 10 3 17 12 17 10 0 16 -9 16 -21z
m-14740 -10 c0 -6 -4 -7 -10 -4 -5 3 -10 11 -10 16 0 6 5 7 10 4 6 -3 10 -11
10 -16z m10057 -31 c-3 -8 -6 -5 -6 6 -1 11 2 17 5 13 3 -3 4 -12 1 -19z
m-14212 -38 c0 -7 -6 -15 -12 -17 -8 -3 -13 4 -13 17 0 13 5 20 13 18 6 -3 12
-11 12 -18z m13105 -70 c0 -5 -5 -10 -11 -10 -5 0 -7 5 -4 10 3 6 8 10 11 10
2 0 4 -4 4 -10z m12236 -184 c15 -12 17 -19 8 -32 -17 -28 -31 -27 -50 1 -15
23 -15 28 -3 36 19 12 22 11 45 -5z m-24146 -11 c0 -8 -7 -15 -15 -15 -8 0
-15 7 -15 15 0 8 7 15 15 15 8 0 15 -7 15 -15z m-9433 -21 c-3 -3 -12 -4 -19
-1 -8 3 -5 6 6 6 11 1 17 -2 13 -5z m14843 -13 c7 -13 7 -22 0 -26 -18 -11
-50 6 -50 26 0 25 36 25 50 0z m9790 -73 c0 -20 -26 -24 -33 -5 -2 6 0 20 5
31 8 15 12 16 19 5 5 -8 9 -22 9 -31z m-5573 10 c-3 -8 -6 -5 -6 6 -1 11 2 17
5 13 3 -3 4 -12 1 -19z m2343 2 c0 -11 -4 -20 -10 -20 -5 0 -10 9 -10 20 0 11
5 20 10 20 6 0 10 -9 10 -20z m-8840 -109 c0 -11 -5 -10 -20 4 -11 10 -20 22
-20 27 0 4 9 3 20 -4 11 -7 20 -19 20 -27z m6665 -6 c0 -10 -6 -20 -12 -22 -8
-3 -13 5 -13 22 0 17 5 25 13 23 6 -3 12 -13 12 -23z m-8647 -94 c3 -8 -1 -12
-9 -9 -7 2 -15 10 -17 17 -3 8 1 12 9 9 7 -2 15 -10 17 -17z m-2228 -61 c0 -5
-2 -10 -4 -10 -3 0 -8 5 -11 10 -3 6 -1 10 4 10 6 0 11 -4 11 -10z m13770 -30
c0 -5 -7 -10 -15 -10 -8 0 -15 5 -15 10 0 6 7 10 15 10 8 0 15 -4 15 -10z
m-10615 -40 c3 -5 1 -10 -4 -10 -6 0 -11 5 -11 10 0 6 2 10 4 10 3 0 8 -4 11
-10z m8461 -125 c7 -17 -21 -65 -36 -65 -13 0 -13 36 0 61 13 23 28 25 36 4z
m-9019 -27 c-3 -8 -6 -5 -6 6 -1 11 2 17 5 13 3 -3 4 -12 1 -19z m693 -70 c0
-19 -2 -20 -10 -8 -13 19 -13 30 0 30 6 0 10 -10 10 -22z m8930 -84 c0 -14 -4
-23 -10 -19 -5 3 -10 15 -10 26 0 10 5 19 10 19 6 0 10 -12 10 -26z m8360 10
c0 -2 -7 -4 -15 -4 -8 0 -15 4 -15 10 0 5 7 7 15 4 8 -4 15 -8 15 -10z
m-17683 -46 c-3 -8 -6 -5 -6 6 -1 11 2 17 5 13 3 -3 4 -12 1 -19z m21078 -48
c-3 -5 -13 -10 -21 -10 -8 0 -14 5 -14 10 0 6 9 10 21 10 11 0 17 -4 14 -10z
m-21727 -126 c46 -59 61 -94 38 -94 -8 0 -18 9 -21 20 -3 11 -15 25 -26 31
-19 10 -27 24 -44 78 -11 35 7 23 53 -35z m-638 36 c0 -5 -4 -10 -10 -10 -5 0
-10 5 -10 10 0 6 5 10 10 10 6 0 10 -4 10 -10z m-1739 -66 c12 -14 11 -16 -5
-13 -11 2 -21 10 -24 17 -5 17 13 15 29 -4z m3006 10 c-3 -3 -12 -4 -19 -1 -8
3 -5 6 6 6 11 1 17 -2 13 -5z m21761 -46 c22 -24 115 -131 208 -238 173 -200
365 -404 398 -422 28 -15 45 9 55 78 16 104 21 194 21 397 l0 197 145 0 144 0
3 -347 c2 -192 2 -520 0 -730 l-3 -383 -42 1 c-42 0 -42 0 -257 240 -270 302
-410 440 -440 432 -11 -3 -23 -10 -27 -16 -16 -27 -33 -233 -33 -419 l0 -208
-145 0 -145 0 0 218 c-1 243 -1 845 0 1085 l0 157 40 0 c34 0 45 -6 78 -42z
m-10114 11 c179 -26 292 -133 334 -315 18 -78 18 -92 6 -165 -14 -78 -41 -146
-72 -181 -12 -14 -12 -20 -2 -33 7 -8 19 -15 27 -15 8 0 13 -6 10 -12 -2 -7
-14 -12 -26 -11 -24 3 -24 2 20 -63 46 -68 62 -133 57 -233 -4 -78 -9 -99 -41
-164 -45 -91 -112 -156 -205 -200 l-67 -32 -337 -3 -338 -3 0 716 c0 393 1
716 3 717 1 1 76 4 167 7 202 7 372 4 464 -10z m6525 -15 c52 -13 99 -28 103
-32 7 -7 -12 -192 -27 -258 l-5 -22 -75 24 c-42 13 -106 27 -143 30 -114 11
-183 -33 -195 -122 -9 -63 33 -118 113 -151 25 -10 92 -43 150 -72 81 -42 121
-71 176 -125 96 -96 117 -151 112 -291 -5 -122 -31 -188 -107 -268 -94 -99
-205 -142 -371 -141 -74 1 -129 7 -189 23 -79 21 -199 65 -212 79 -7 7 25 289
33 298 3 2 25 -7 49 -21 58 -33 181 -72 256 -80 132 -15 223 41 223 138 0 66
-39 101 -176 161 -178 78 -285 159 -333 254 -74 145 -34 360 89 483 121 121
294 152 529 93z m-2254 13 c83 -2 110 -7 157 -29 146 -67 252 -230 248 -382
-2 -94 -15 -156 -46 -223 -26 -54 -102 -142 -153 -176 -15 -10 -26 -30 -31
-56 -8 -47 -8 -48 158 -347 62 -110 112 -204 112 -207 0 -4 -73 -7 -162 -7
l-163 1 -93 172 c-139 261 -206 344 -262 330 -25 -7 -40 -46 -40 -108 0 -30
-4 -57 -10 -60 -6 -4 -10 -72 -10 -171 l0 -164 -144 0 c-119 0 -145 3 -150 15
-4 12 -8 744 -6 1312 l0 103 183 2 c100 2 211 2 247 1 36 -2 110 -4 165 -6z
m-18337 -15 c6 -18 -15 -14 -22 4 -4 10 -1 14 6 12 6 -2 14 -10 16 -16z
m14982 -149 c55 -93 118 -188 139 -212 l38 -45 29 19 c39 25 40 26 162 228
l107 177 178 0 179 0 -23 -37 c-13 -21 -121 -193 -241 -382 -120 -190 -218
-353 -218 -362 0 -10 -4 -21 -10 -24 -6 -4 -10 -120 -10 -316 l0 -309 -145 0
-145 0 -1 218 c0 119 0 263 0 320 1 90 -1 104 -19 119 -11 10 -20 25 -20 34 0
9 -9 28 -20 42 -11 14 -20 28 -20 31 0 3 -64 105 -141 228 -172 270 -269 427
-269 433 0 3 79 5 175 5 l174 0 101 -167z m2244 152 c173 -45 289 -204 300
-410 8 -160 -53 -295 -176 -388 -63 -47 -137 -69 -258 -76 -90 -6 -95 -7 -92
-28 2 -12 -2 -24 -7 -28 -16 -9 -46 11 -46 32 0 29 -64 21 -92 -12 -23 -26
-23 -31 -23 -266 l0 -239 -145 0 -145 0 0 715 0 715 313 0 c248 0 325 -3 371
-15z m2468 -73 c1 -49 1 -114 0 -145 l-4 -57 -124 0 c-94 0 -133 -4 -155 -16
-23 -11 -34 -12 -44 -4 -18 15 -63 2 -75 -20 -13 -24 -13 -151 0 -184 13 -35
60 -46 218 -53 l132 -6 0 -142 0 -142 -132 -6 c-138 -6 -207 -19 -209 -40 -1
-7 -3 -25 -4 -42 -2 -16 -6 -55 -9 -85 -3 -30 -2 -59 2 -65 26 -36 45 -40 236
-45 l191 -5 3 -142 3 -143 -376 0 -375 0 -1 313 c-1 171 -3 357 -5 412 -2 55
-1 236 2 403 l6 302 358 0 358 0 4 -88z m1638 -41 c0 -76 4 -132 10 -136 6 -3
10 -24 10 -46 0 -21 -4 -39 -10 -39 -7 0 -10 -187 -10 -540 l0 -540 -145 0
-145 0 0 215 c-1 118 -1 298 -1 400 0 102 0 327 1 500 l0 315 145 0 145 0 0
-129z m918 113 c46 -9 115 -34 170 -61 163 -80 273 -213 339 -408 24 -72 27
-95 27 -225 1 -170 -12 -225 -82 -364 -65 -126 -156 -216 -283 -279 -139 -68
-198 -77 -514 -77 l-265 0 0 256 c0 165 -4 262 -11 276 -8 14 -8 23 0 31 8 8
11 143 11 439 l0 428 265 0 c201 0 285 -4 343 -16z m1522 -129 l0 -145 -154 0
c-244 0 -256 -6 -256 -129 0 -103 14 -123 103 -139 35 -7 108 -12 161 -12 l96
0 0 -145 0 -145 -102 0 c-57 -1 -132 -6 -168 -13 -79 -15 -90 -31 -90 -134 0
-62 3 -76 24 -100 l24 -28 196 -3 196 -4 0 -144 0 -144 -375 0 -375 0 -1 353
c0 193 0 471 0 616 1 145 1 308 1 362 l0 99 360 0 360 0 0 -145z m2580 0 l0
-145 -152 0 c-84 0 -158 -4 -164 -8 -32 -21 -34 -51 -34 -591 l0 -541 -144 0
-144 0 -6 103 c-4 56 -8 304 -9 550 l-2 449 -24 19 c-20 17 -40 19 -172 19
l-149 0 0 145 0 145 500 0 500 0 0 -145z m4780 42 c0 -17 -20 -37 -37 -37 -10
0 -10 6 3 25 18 27 34 33 34 12z m-31080 -7 c0 -5 -4 -10 -10 -10 -5 0 -10 5
-10 10 0 6 5 10 10 10 6 0 10 -4 10 -10z m1391 -22 c21 -26 24 -44 9 -53 -9
-5 -50 50 -50 68 0 15 22 6 41 -15z m13129 -108 c0 -5 -4 -10 -10 -10 -5 0
-10 5 -10 10 0 6 5 10 10 10 6 0 10 -4 10 -10z m-2160 -140 c0 -5 -7 -10 -15
-10 -8 0 -15 5 -15 10 0 6 7 10 15 10 8 0 15 -4 15 -10z m-12743 -42 c-3 -8
-6 -5 -6 6 -1 11 2 17 5 13 3 -3 4 -12 1 -19z m1681 -7 c3 -8 -1 -12 -9 -9 -7
2 -15 10 -17 17 -3 8 1 12 9 9 7 -2 15 -10 17 -17z m672 -6 c0 -8 -7 -15 -15
-15 -16 0 -20 12 -8 23 11 12 23 8 23 -8z m1820 -89 c0 -22 -24 -46 -38 -37
-19 12 2 63 23 55 8 -3 15 -12 15 -18z m-4623 -28 c-3 -8 -6 -5 -6 6 -1 11 2
17 5 13 3 -3 4 -12 1 -19z m28883 3 c0 -14 -18 -23 -30 -16 -6 4 -8 11 -5 16
8 12 35 12 35 0z m-21727 -86 c9 -22 -8 -26 -21 -4 -10 15 -10 19 2 19 8 0 16
-7 19 -15z m-3723 -125 c0 -5 -7 -10 -16 -10 -8 0 -12 5 -9 10 3 6 10 10 16
10 5 0 9 -4 9 -10z m-489 -60 c5 0 9 -7 9 -17 0 -14 -2 -14 -20 2 -11 10 -20
30 -19 44 l1 26 10 -27 c5 -16 14 -28 19 -28z m-681 8 c0 -19 -2 -20 -10 -8
-13 19 -13 30 0 30 6 0 10 -10 10 -22z m-557 -28 c3 -11 2 -20 -3 -20 -8 0
-20 24 -20 41 0 17 17 1 23 -21z m27837 20 c0 -5 -7 -10 -15 -10 -8 0 -15 5
-15 10 0 6 7 10 15 10 8 0 15 -4 15 -10z m-14060 -19 c0 -9 -41 -23 -48 -16
-2 2 -1 8 3 14 8 13 45 15 45 2z m-13132 -119 c6 -20 -32 -14 -51 8 -9 11 -17
25 -17 30 0 13 62 -22 68 -38z m1010 16 c-5 -32 -28 -35 -28 -4 0 17 5 26 16
26 10 0 14 -7 12 -22z m-258 -34 c0 -8 -4 -12 -10 -9 -5 3 -10 10 -10 16 0 5
5 9 10 9 6 0 10 -7 10 -16z m-2610 -20 c0 -8 -4 -14 -10 -14 -5 0 -10 9 -10
21 0 11 5 17 10 14 6 -3 10 -13 10 -21z m11270 -74 c0 -5 -4 -10 -9 -10 -6 0
-13 5 -16 10 -3 6 1 10 9 10 9 0 16 -4 16 -10z m-9440 -20 c0 -5 -2 -10 -4
-10 -3 0 -8 5 -11 10 -3 6 -1 10 4 10 6 0 11 -4 11 -10z m13258 -77 c2 -8 -5
-13 -17 -13 -12 0 -21 6 -21 16 0 18 31 15 38 -3z m-13471 -127 c-3 -7 4 -28
15 -47 17 -27 17 -31 3 -19 -20 17 -37 58 -29 71 8 14 17 11 11 -5z m2731 -61
c-2 -14 -7 -26 -13 -26 -5 0 -11 12 -13 26 -2 18 1 25 13 25 12 0 15 -7 13
-25z m6222 -9 c0 -3 -4 -8 -10 -11 -5 -3 -10 -1 -10 4 0 6 5 11 10 11 6 0 10
-2 10 -4z m-2052 -49 c2 -10 -3 -17 -12 -17 -18 0 -29 16 -21 31 9 14 29 6 33
-14z m-9058 -33 c0 -8 -4 -12 -10 -9 -5 3 -10 13 -10 21 0 8 5 12 10 9 6 -3
10 -13 10 -21z m490 -54 c0 -5 -4 -10 -10 -10 -5 0 -10 5 -10 10 0 6 5 10 10
10 6 0 10 -4 10 -10z m6599 -89 c9 -6 10 -10 2 -16 -16 -9 -44 2 -36 15 8 12
16 12 34 1z m16321 -32 c0 -11 -4 -17 -10 -14 -5 3 -10 13 -10 21 0 8 5 14 10
14 6 0 10 -9 10 -21z m3280 -64 c0 -16 -27 -32 -37 -22 -3 4 -3 13 0 22 8 20
37 20 37 0z m-24510 -161 c0 -8 -4 -14 -10 -14 -5 0 -10 9 -10 21 0 11 5 17
10 14 6 -3 10 -13 10 -21z m-410 -30 c0 -17 -22 -14 -28 4 -2 7 3 12 12 12 9
0 16 -7 16 -16z m4762 -19 c0 -5 -5 -11 -11 -13 -6 -2 -11 4 -11 13 0 9 5 15
11 13 6 -2 11 -8 11 -13z m-1952 -154 c-1 -13 -3 -13 -15 3 -19 26 -19 42 0
26 8 -7 15 -20 15 -29z m6580 -205 c0 -2 -7 -6 -15 -10 -8 -3 -15 -1 -15 4 0
6 7 10 15 10 8 0 15 -2 15 -4z m-7353 -161 c9 -25 -2 -27 -22 -5 -17 18 -17
20 -1 20 9 0 19 -7 23 -15z m2033 -175 c0 -5 -2 -10 -4 -10 -3 0 -8 5 -11 10
-3 6 -1 10 4 10 6 0 11 -4 11 -10z m2270 -10 c0 -5 -4 -10 -10 -10 -5 0 -10 5
-10 10 0 6 5 10 10 10 6 0 10 -4 10 -10z m-1526 -120 c-14 -14 -39 14 -29 31
5 8 12 6 23 -5 11 -11 13 -19 6 -26z m-3084 -10 c0 -5 -4 -10 -9 -10 -6 0 -13
5 -16 10 -3 6 1 10 9 10 9 0 16 -4 16 -10z m2524 -295 c3 -8 1 -15 -4 -15 -6
0 -10 7 -10 15 0 8 2 15 4 15 2 0 6 -7 10 -15z m-5086 -7 c14 -14 16 -28 2
-28 -5 0 -14 9 -20 20 -12 22 -1 27 18 8z m11632 -219 c0 -14 -5 -19 -17 -17
-26 5 -29 38 -4 38 15 0 21 -6 21 -21z m1704 -215 c20 -8 21 -34 1 -34 -8 0
-15 2 -15 4 0 2 -3 11 -6 20 -7 18 -4 19 20 10z m-1504 -243 c0 -12 -20 -25
-27 -18 -7 7 6 27 18 27 5 0 9 -4 9 -9z m-893 -143 c-2 -13 -4 -5 -4 17 -1 22
1 32 4 23 2 -10 2 -28 0 -40z m19411 23 c3 -8 -1 -12 -9 -9 -7 2 -15 10 -17
17 -3 8 1 12 9 9 7 -2 15 -10 17 -17z m-14778 -256 c0 -8 -7 -15 -15 -15 -8 0
-15 7 -15 15 0 8 7 15 15 15 8 0 15 -7 15 -15z m-2813 -47 c-3 -8 -6 -5 -6 6
-1 11 2 17 5 13 3 -3 4 -12 1 -19z m-5711 -43 c4 -8 3 -23 0 -32 -6 -15 -8
-15 -23 -1 -16 17 -12 48 7 48 6 0 13 -7 16 -15z m4341 -281 c-3 -3 -12 -4
-19 -1 -8 3 -5 6 6 6 11 1 17 -2 13 -5z m-1139 -133 c-3 -30 -31 -36 -36 -8
-6 28 5 47 23 41 10 -4 15 -16 13 -33z m-218 -169 c0 -13 -12 -22 -22 -16 -10
6 -1 24 13 24 5 0 9 -4 9 -8z m-18955 -32 c-3 -5 -10 -10 -16 -10 -5 0 -9 5
-9 10 0 6 7 10 16 10 8 0 12 -4 9 -10z m23865 -305 c0 -8 -4 -15 -10 -15 -5 0
-10 7 -10 15 0 8 5 15 10 15 6 0 10 -7 10 -15z m-3410 -54 c0 -10 -24 -21 -47
-21 -13 0 -13 3 -3 15 13 16 50 21 50 6z m1310 -572 c0 -11 -4 -17 -10 -14 -5
3 -10 13 -10 21 0 8 5 14 10 14 6 0 10 -9 10 -21z m-4462 -33 c3 -12 -1 -17
-10 -14 -7 3 -15 13 -16 22 -3 12 1 17 10 14 7 -3 15 -13 16 -22z m19627 -456
c-3 -5 -13 -10 -21 -10 -8 0 -14 5 -14 10 0 6 9 10 21 10 11 0 17 -4 14 -10z
m-20555 -140 c0 -23 -26 -38 -41 -23 -14 14 0 43 22 43 12 0 19 -7 19 -20z
m-11279 -26 c12 -14 11 -16 -5 -13 -11 2 -21 10 -24 17 -5 17 13 15 29 -4z
m24839 -155 c0 -5 -7 -9 -15 -9 -15 0 -20 12 -9 23 8 8 24 -1 24 -14z m3465
-1309 c-3 -5 -13 -10 -21 -10 -8 0 -14 5 -14 10 0 6 9 10 21 10 11 0 17 -4 14
-10z m-18205 -151 c0 -5 -4 -9 -10 -9 -5 0 -10 7 -10 16 0 8 5 12 10 9 6 -3
10 -10 10 -16z m2917 -285 c8 -21 -13 -42 -28 -27 -13 13 -5 43 11 43 6 0 13
-7 17 -16z m-2446 -419 l29 -16 -31 -62 c-18 -34 -128 -257 -245 -494 -117
-238 -215 -433 -219 -433 -6 0 -46 19 -54 26 -5 4 480 994 486 994 2 0 17 -7
34 -15z m11661 -4 l27 -14 -246 -491 c-135 -270 -247 -492 -248 -494 -2 -2
-17 4 -34 12 l-31 16 248 495 c136 272 249 494 252 492 3 -1 17 -9 32 -16z
m-19930 -21 c2 -5 1 -32 0 -60 l-4 -50 -59 0 -59 0 0 60 0 60 59 0 c33 0 61
-4 63 -10z m768 -110 l0 -120 125 0 125 0 0 -40 0 -40 -125 0 -125 0 0 -177
c0 -159 2 -181 20 -210 67 -111 244 -85 275 40 5 20 14 27 30 27 43 0 55 -10
49 -39 -18 -74 -70 -135 -139 -161 -44 -17 -145 -14 -193 6 -50 19 -108 83
-122 133 -5 20 -10 113 -10 208 l0 172 -67 3 -68 3 -3 38 -3 37 70 0 71 0 0
120 0 120 45 0 45 0 0 -120z m790 -72 c1 -182 2 -191 17 -163 44 84 113 125
213 125 76 0 136 -24 168 -65 43 -54 52 -114 52 -337 l0 -208 -44 0 -45 0 -3
218 c-3 236 -7 256 -61 296 -22 16 -43 21 -87 21 -79 -1 -133 -37 -175 -120
-30 -58 -30 -61 -33 -237 l-4 -178 -44 0 -44 0 0 420 0 420 45 0 45 0 0 -192z
m1790 47 c0 -80 3 -145 6 -145 3 0 18 8 32 18 41 29 89 42 152 42 116 0 207
-56 257 -158 25 -51 28 -68 28 -157 0 -89 -3 -106 -27 -151 -53 -101 -127
-146 -248 -152 -79 -4 -89 -2 -142 27 l-58 30 0 -25 c0 -22 -4 -24 -45 -24
l-45 0 0 420 0 420 45 0 45 0 0 -145z m9210 85 l0 -60 -60 0 -60 0 0 60 0 60
60 0 60 0 0 -60z m1110 -360 l0 -420 -45 0 c-41 0 -45 2 -45 25 0 26 -14 33
-26 14 -16 -27 -90 -49 -164 -49 -177 0 -290 121 -290 311 0 188 117 309 298
309 66 0 141 -24 156 -49 19 -30 26 -2 26 94 l0 105 -60 0 -60 0 0 40 0 40
105 0 105 0 0 -420z m2340 300 l0 -120 131 0 130 0 -3 -37 -3 -38 -127 -3
-128 -3 0 -168 c0 -155 2 -171 23 -211 37 -71 115 -98 190 -66 40 16 83 65 92
104 5 25 9 28 36 24 38 -6 44 -21 29 -67 -16 -49 -66 -104 -115 -126 -97 -45
-243 -11 -298 69 -38 54 -46 108 -47 285 l0 157 -65 0 -65 0 0 40 0 40 65 0
65 0 0 120 0 120 45 0 45 0 0 -120z m3038 -302 l2 -418 -45 0 c-41 0 -45 2
-45 25 0 31 -1 31 -46 0 -45 -31 -88 -39 -172 -33 -162 12 -262 130 -262 309
0 99 25 164 85 225 60 60 120 84 214 84 65 0 140 -24 155 -49 19 -30 26 -2 26
94 l0 105 -60 0 -60 0 0 40 0 41 103 -3 102 -3 3 -417z m3372 362 l0 -60 -60
0 -60 0 0 53 c0 30 3 57 7 60 3 4 30 7 60 7 l53 0 0 -60z m1110 -360 l0 -420
-45 0 c-41 0 -45 2 -45 23 l0 24 -56 -29 c-101 -50 -238 -35 -322 38 -115 98
-133 311 -39 442 50 69 121 105 221 110 74 3 86 1 139 -26 l57 -29 0 104 0
103 -60 0 -60 0 0 40 0 40 105 0 105 0 0 -420z m898 -2 l2 -418 -45 0 c-41 0
-45 2 -45 25 0 26 -14 33 -26 14 -30 -48 -202 -65 -284 -28 -109 49 -170 150
-170 283 0 106 23 170 85 232 60 60 120 84 214 84 65 0 140 -24 155 -49 19
-30 26 -2 26 94 l0 105 -60 0 -60 0 0 40 0 41 103 -3 102 -3 3 -417z m-25272
173 c23 -10 45 -24 48 -30 12 -19 26 -12 26 14 0 23 4 25 45 25 l45 0 0 -287
c0 -159 -5 -315 -10 -348 -13 -82 -52 -141 -119 -178 -47 -26 -68 -32 -142
-35 -51 -3 -101 0 -122 7 -47 16 -122 66 -141 96 -15 23 -14 25 13 45 l30 20
25 -25 c92 -92 293 -85 348 11 19 33 37 160 22 152 -5 -2 -35 -17 -68 -32 -52
-26 -66 -28 -135 -24 -130 8 -221 72 -257 181 -25 75 -16 206 19 273 31 61 93
117 151 138 60 21 172 20 222 -3z m6280 -5 c28 -13 59 -34 68 -47 16 -23 16
-23 16 19 l0 42 40 0 40 0 0 -120 0 -120 -39 0 c-37 0 -39 1 -50 45 -20 79
-99 135 -192 135 -54 0 -134 -43 -163 -87 -52 -78 -55 -211 -7 -290 69 -113
244 -137 350 -47 46 40 48 40 81 14 l25 -20 -48 -44 c-65 -61 -125 -80 -236
-74 -132 7 -212 56 -262 163 -24 51 -29 73 -29 141 0 110 21 166 85 230 60 60
114 82 205 83 49 1 78 -5 116 -23z m940 -9 c105 -53 159 -152 158 -287 0 -98
-29 -165 -96 -225 -67 -60 -127 -79 -237 -73 -98 5 -148 25 -207 85 -59 59
-79 113 -79 218 0 113 25 175 97 240 67 61 113 75 223 72 74 -3 99 -8 141 -30z
m715 22 c11 -5 28 -24 39 -41 l18 -30 18 26 c34 54 122 73 184 41 60 -31 65
-53 68 -337 l3 -258 -45 0 -46 0 0 238 c0 256 -4 279 -52 296 -20 7 -33 5 -53
-8 -50 -33 -58 -71 -63 -308 l-4 -218 -42 0 -41 0 0 239 c0 228 -1 241 -21
268 -43 57 -110 30 -133 -53 -6 -22 -11 -129 -11 -246 l0 -208 -45 0 -45 0 0
300 0 300 45 0 45 0 0 -37 0 -38 19 32 c11 17 28 36 38 42 24 14 99 14 124 0z
m1931 -5 c64 -21 122 -75 155 -142 25 -50 28 -68 28 -152 0 -84 -3 -102 -28
-152 -52 -105 -141 -158 -268 -158 -55 0 -77 5 -123 29 l-56 30 0 -145 0 -144
-45 0 -45 0 0 420 0 420 45 0 c41 0 45 -2 45 -25 0 -26 14 -33 26 -14 27 44
178 63 266 33z m1069 -1 c9 -9 9 -20 -1 -43 -10 -25 -17 -30 -34 -25 -12 3
-44 8 -73 12 -98 11 -193 -57 -232 -167 -7 -19 -16 -92 -18 -162 l-6 -128 72
0 71 0 0 -40 0 -40 -180 0 -180 0 0 40 0 40 70 0 70 0 0 220 0 220 -70 0 -70
0 0 40 0 40 110 0 110 0 0 -72 0 -72 29 46 c28 45 67 79 112 98 32 13 206 7
220 -7z m771 -16 c87 -50 134 -130 145 -242 l6 -65 -257 0 -256 0 0 -22 c1
-69 77 -158 152 -179 81 -22 193 6 242 60 23 26 34 26 66 1 l25 -19 -47 -44
c-63 -61 -125 -81 -237 -75 -132 7 -207 53 -260 160 -27 53 -31 72 -31 143 0
111 20 167 85 231 67 68 115 84 230 81 78 -2 98 -7 137 -30z m889 13 c35 -11
72 -27 82 -34 17 -13 17 -16 2 -45 -8 -17 -17 -31 -19 -31 -2 0 -28 11 -58 25
-144 66 -355 25 -346 -68 5 -47 39 -64 173 -87 215 -36 272 -64 294 -146 20
-75 -12 -140 -92 -181 -49 -26 -59 -28 -182 -28 -110 0 -140 4 -197 23 -37 13
-77 31 -89 41 -21 17 -21 18 -5 49 9 18 20 32 25 32 5 0 28 -11 52 -24 128
-72 325 -74 384 -4 31 37 32 62 2 92 -25 25 -61 34 -226 61 -169 28 -237 82
-229 183 4 45 10 59 40 89 50 50 122 72 234 73 65 0 111 -6 155 -20z m2693
-10 c84 -43 141 -135 152 -248 l7 -62 -261 0 -260 0 9 -40 c13 -58 53 -113
102 -141 34 -20 56 -24 117 -24 80 0 135 21 174 64 24 26 31 26 62 2 l25 -20
-37 -36 c-60 -61 -124 -85 -224 -85 -73 0 -94 4 -145 28 -67 32 -118 83 -149
151 -31 69 -29 197 5 271 38 81 97 135 179 161 14 5 63 7 110 6 68 -2 95 -7
134 -27z m906 8 c93 -47 110 -108 110 -388 l0 -200 -44 0 -45 0 -3 224 c-3
209 -4 227 -24 253 -76 104 -230 73 -299 -62 -30 -58 -30 -61 -33 -237 l-4
-178 -44 0 -44 0 0 300 0 300 45 0 45 0 0 -72 c1 -73 1 -73 17 -43 44 84 113
124 213 125 49 0 77 -6 110 -22z m6297 -10 c76 -50 93 -123 93 -395 l0 -183
-44 0 -44 0 -4 218 c-3 183 -6 222 -21 249 -51 95 -191 95 -272 0 -54 -63 -65
-115 -65 -304 l0 -163 -45 0 -45 0 0 300 0 300 45 0 45 0 0 -67 c1 -55 3 -64
12 -48 21 38 73 88 113 107 61 29 178 22 232 -14z m-21657 -238 l0 -260 65 0
65 0 0 -40 0 -40 -181 0 -180 0 3 38 3 37 68 3 67 3 0 219 0 219 -67 3 -68 3
-3 38 -3 37 115 0 116 0 0 -260z m2463 238 c3 -12 5 -109 5 -217 -1 -167 1
-201 15 -228 65 -125 259 -79 317 73 17 47 20 78 20 224 l0 170 45 0 45 0 0
-300 0 -300 -45 0 -45 0 0 66 0 66 -32 -48 c-45 -66 -108 -98 -194 -97 -94 1
-151 32 -186 103 l-28 54 0 228 0 228 39 0 c31 0 40 -4 44 -22z m10087 -238
l0 -259 68 -3 67 -3 3 -37 3 -38 -180 0 -181 0 0 40 0 40 70 0 70 0 0 220 0
220 -70 0 -70 0 0 40 0 40 110 0 110 0 0 -260z m5290 220 c0 -38 -2 -40 -30
-40 l-30 0 52 -80 c29 -44 55 -80 58 -80 3 0 29 36 58 80 l52 80 -30 0 c-28 0
-30 2 -30 40 l0 40 125 0 125 0 0 -40 0 -40 -43 0 -42 0 -78 -106 c-43 -59
-76 -112 -73 -118 3 -6 38 -56 79 -111 73 -100 73 -100 120 -103 l47 -3 0 -40
0 -39 -120 0 -120 0 0 40 c0 33 3 40 20 40 11 0 20 2 20 5 0 12 -101 155 -109
155 -7 0 -98 -128 -109 -152 -2 -5 6 -8 17 -8 18 0 21 -6 21 -40 l0 -40 -120
0 -120 0 0 40 0 40 48 0 47 1 75 105 c41 58 76 110 78 115 2 5 -31 56 -74 114
l-77 105 -43 0 -44 0 0 40 0 40 125 0 125 0 0 -40z m2690 0 c0 -36 -2 -40 -25
-40 -14 0 -25 -2 -25 -5 0 -16 103 -156 110 -149 4 5 28 41 54 79 l46 70 -30
3 c-28 3 -30 6 -30 43 l0 39 125 0 125 0 0 -40 0 -40 -42 0 c-43 -1 -43 -1
-118 -105 -41 -58 -74 -109 -73 -115 2 -5 37 -57 79 -114 l76 -105 46 -3 c46
-3 47 -3 50 -40 l3 -38 -125 0 -126 0 0 39 c0 34 3 40 24 43 23 3 22 6 -34 86
l-58 82 -56 -82 c-51 -75 -55 -83 -36 -86 16 -3 20 -11 20 -43 l0 -39 -120 0
-120 0 0 40 0 40 48 0 47 0 81 112 81 112 -77 106 -77 105 -46 3 -47 3 0 40 0
39 125 0 125 0 0 -40z m1890 -220 l0 -260 65 0 65 0 0 -40 0 -40 -181 0 -180
0 3 38 3 37 68 3 67 3 0 219 0 219 -67 3 -68 3 -3 38 -3 37 115 0 116 0 0
-260z m2538 -4 c94 -229 107 -256 116 -235 6 13 54 129 106 259 l96 235 52 3
c29 2 52 1 52 -1 0 -11 -332 -774 -346 -795 -22 -33 -74 -52 -142 -52 -97 0
-122 8 -122 39 0 47 10 52 72 39 80 -17 102 -5 139 77 16 35 29 69 29 74 0 6
-58 145 -130 309 -71 165 -130 302 -130 306 0 4 23 6 51 4 l51 -3 106 -259z
m-7668 -26 l0 -40 -297 2 -298 3 -3 23 c-8 53 -15 52 303 52 l295 0 0 -40z
m-12790 -250 l0 -60 -60 0 -60 0 0 60 0 60 60 0 60 0 0 -60z m-4150 0 c0 -5
-11 -10 -25 -10 -14 0 -25 5 -25 10 0 6 11 10 25 10 14 0 25 -4 25 -10z
m-3164 -209 c0 -16 -4 -17 -18 -10 -10 5 -18 14 -18 19 0 6 8 10 18 10 11 0
18 -7 18 -19z"/>
<path d="M38743 21040 c-42 -10 -83 -37 -83 -55 0 -8 -8 -18 -17 -24 -15 -8
-15 -14 -5 -47 12 -41 2 -67 -24 -57 -20 7 -19 -50 1 -67 19 -16 19 -35 -1
-55 -13 -13 -17 -41 -18 -153 0 -75 3 -147 8 -159 7 -20 5 -23 -18 -23 -31 0
-31 -1 -6 -42 25 -41 25 -44 0 -51 -17 -4 -20 -14 -20 -66 0 -48 4 -65 20 -81
26 -26 26 -44 -1 -37 -20 5 -20 3 -14 -46 3 -29 11 -64 17 -79 11 -30 4 -63
-12 -53 -6 4 -10 -31 -10 -99 0 -74 4 -106 13 -109 10 -3 10 -9 0 -26 -16 -26
-17 -193 -2 -208 8 -8 8 -45 -2 -137 -10 -104 -10 -130 1 -151 11 -21 11 -29
0 -50 -12 -22 -11 -27 6 -46 18 -20 18 -22 1 -34 -12 -9 -17 -26 -17 -64 0
-28 4 -51 10 -51 5 0 7 -13 4 -28 -8 -40 13 -113 30 -106 17 6 31 -12 16 -21
-15 -9 -13 -17 13 -45 41 -46 93 -63 214 -68 84 -3 117 -1 129 9 13 10 17 10
24 -1 10 -17 77 -17 93 -1 6 6 32 11 57 11 25 0 52 6 58 12 7 7 34 14 60 15
65 3 163 35 222 73 40 26 48 35 41 49 -6 10 -6 23 0 32 8 12 13 10 29 -9 l19
-23 28 27 c15 16 33 29 40 30 6 1 20 8 30 16 28 20 107 108 97 108 -4 0 -3 5
4 12 7 7 12 23 12 37 0 15 3 36 6 48 5 18 10 21 24 13 22 -12 24 -8 38 42 6
23 7 40 1 44 -22 13 4 23 29 10 24 -12 29 -11 48 8 12 11 38 61 59 110 31 73
36 93 26 108 -9 14 -8 18 3 18 8 0 19 15 25 33 33 100 53 366 32 406 -8 13 -8
28 -1 45 5 15 7 45 4 69 -5 38 -9 43 -32 42 -17 0 -28 6 -30 18 -4 20 33 24
42 5 19 -40 -10 93 -40 180 -33 101 -53 138 -104 188 -19 20 -21 27 -10 34 10
6 7 18 -19 59 -18 28 -39 51 -46 51 -8 0 -20 12 -27 27 -7 15 -24 30 -38 33
-16 4 -26 14 -28 28 -2 13 -17 29 -35 39 -31 16 -62 49 -62 67 0 14 -58 43
-75 39 -9 -2 -31 7 -50 22 -19 14 -47 31 -63 37 -15 7 -29 20 -32 29 -6 17
-24 26 -105 53 -91 29 -119 30 -141 7 -26 -28 -79 -29 -79 -2 0 25 -12 28 -72
21 -26 -4 -48 -2 -48 2 0 5 -12 8 -27 6 -20 -2 -32 -12 -43 -36 -15 -30 -16
-31 -31 -14 -8 10 -14 23 -11 30 6 18 -13 15 -39 -7 -24 -19 -24 -19 -36 10
-7 16 -16 29 -20 28 -4 -1 -23 -4 -40 -9z m487 -104 c0 -11 -19 -15 -25 -6 -3
5 1 10 9 10 9 0 16 -2 16 -4z m270 -152 c0 -17 -22 -14 -28 4 -2 7 3 12 12 12
9 0 16 -7 16 -16z m190 -23 c3 -1 -2 -6 -10 -11 -19 -12 -60 -13 -60 -1 0 17
22 20 70 12z m-996 -510 c3 -5 -1 -11 -9 -15 -15 -6 -29 7 -18 18 9 9 21 8 27
-3z m1276 -816 c0 -8 -6 -15 -14 -15 -17 0 -28 14 -19 24 12 12 33 6 33 -9z
m-382 -233 c2 -15 -2 -22 -12 -22 -11 0 -16 9 -16 26 0 31 23 28 28 -4z m-918
-48 c0 -8 -5 -12 -10 -9 -6 4 -8 11 -5 16 9 14 15 11 15 -7z m365 -220 c0 -10
-8 -20 -17 -22 -18 -3 -26 27 -11 42 12 11 28 0 28 -20z m-230 -64 c3 -5 -1
-10 -9 -10 -9 0 -16 5 -16 10 0 6 4 10 9 10 6 0 13 -4 16 -10z m235 -26 c0
-16 -5 -24 -12 -21 -12 4 -18 34 -10 50 7 15 22 -5 22 -29z m360 -9 c0 -19
-20 -29 -32 -17 -8 8 -7 16 2 26 14 17 30 12 30 -9z m-180 -15 c0 -5 -2 -10
-4 -10 -3 0 -8 5 -11 10 -3 6 -1 10 4 10 6 0 11 -4 11 -10z"/>
<path d="M34898 21043 c-15 -2 -30 -13 -33 -24 -8 -23 -31 -25 -43 -3 -12 22
-52 9 -52 -17 0 -13 -7 -19 -22 -19 -35 0 -47 -12 -62 -63 -11 -38 -12 -49 -1
-64 10 -13 10 -22 3 -31 -6 -7 -12 -35 -14 -63 -3 -28 -10 -63 -18 -77 -7 -15
-12 -54 -12 -87 1 -54 3 -60 24 -63 12 -2 20 -8 16 -13 -3 -5 -10 -7 -15 -4
-5 4 -12 -1 -16 -11 -4 -11 2 -22 16 -33 25 -19 20 -47 -10 -56 -20 -7 -26
-25 -8 -25 6 0 9 -6 6 -14 -3 -7 1 -26 9 -41 13 -26 13 -29 -6 -42 -21 -15
-27 -57 -10 -68 6 -3 10 -17 10 -30 0 -13 -4 -27 -10 -30 -13 -8 -13 -72 -1
-80 5 -3 7 -46 4 -98 -5 -108 -9 -885 -4 -972 5 -79 18 -151 38 -197 21 -50
90 -91 158 -95 28 -1 65 -5 82 -9 29 -6 35 -3 50 25 23 39 31 39 35 -1 l3 -31
85 -2 c95 -3 130 6 130 32 0 10 4 24 9 32 7 11 14 9 33 -12 21 -22 31 -25 64
-21 78 10 153 36 159 56 5 13 16 18 41 18 52 0 198 96 299 197 35 35 46 52 42
70 -3 15 0 23 10 23 42 0 113 88 113 140 0 18 5 29 12 28 16 -4 78 111 71 130
-3 7 -16 18 -29 23 -13 4 -24 13 -24 19 0 13 37 13 42 -1 6 -17 36 0 42 24 3
13 -1 28 -9 37 -13 12 -11 18 15 45 26 27 29 34 21 63 -8 25 -6 35 7 48 18 19
30 89 31 182 1 56 -1 62 -19 62 -19 0 -20 4 -14 38 4 20 11 42 16 49 6 8 2 12
-14 15 -14 2 -26 13 -33 31 -8 24 -6 31 12 45 19 14 22 24 18 61 -7 64 -32
146 -50 161 -13 11 -15 7 -16 -26 l-1 -39 -12 38 c-6 21 -15 35 -19 31 -4 -4
-7 4 -7 17 0 20 2 21 11 9 8 -11 12 -12 16 -2 2 6 10 9 16 6 7 -3 2 3 -10 13
-16 12 -25 34 -29 68 -4 34 -14 57 -30 73 -13 13 -24 33 -24 45 0 28 -41 89
-115 173 -54 62 -60 66 -92 61 -30 -5 -33 -4 -33 19 0 15 -12 38 -30 55 -29
29 -30 29 -66 14 l-37 -15 -64 66 c-47 49 -67 63 -76 56 -16 -13 -87 8 -87 25
0 29 -104 52 -135 29 -15 -11 -16 -16 -5 -35 8 -17 9 -26 1 -34 -8 -8 -11 -5
-11 11 0 12 -6 22 -14 22 -8 0 -17 7 -20 16 -5 13 -15 15 -50 11 -35 -5 -49
-2 -69 13 -17 14 -39 20 -69 19 -24 -1 -54 1 -68 4 -14 2 -37 3 -52 0z m457
-83 c0 -38 -39 -35 -43 3 -3 25 0 28 20 25 17 -2 23 -9 23 -28z m-115 -355 c0
-8 -7 -15 -15 -15 -8 0 -15 7 -15 15 0 8 7 15 15 15 8 0 15 -7 15 -15z m540
-21 c0 -8 -4 -12 -10 -9 -5 3 -10 10 -10 16 0 5 5 9 10 9 6 0 10 -7 10 -16z
m-250 -99 c0 -8 -4 -15 -9 -15 -13 0 -22 16 -14 24 11 11 23 6 23 -9z m-670
-581 c0 -8 -5 -12 -10 -9 -6 4 -8 11 -5 16 9 14 15 11 15 -7z m50 -174 c0 -24
-50 -60 -84 -60 -19 0 -26 5 -26 19 0 22 22 42 64 57 37 12 46 9 46 -16z m975
-569 c3 -5 1 -12 -5 -16 -5 -3 -10 1 -10 9 0 18 6 21 15 7z m-935 -135 c-15
-15 -33 4 -19 20 10 12 14 12 20 2 5 -7 4 -17 -1 -22z m190 -272 c0 -8 -7 -14
-15 -14 -15 0 -21 21 -9 33 10 9 24 -2 24 -19z"/>
<path d="M26240 21180 c0 -5 5 -10 11 -10 5 0 7 5 4 10 -3 6 -8 10 -11 10 -2
0 -4 -4 -4 -10z"/>
<path d="M38000 15340 c-16 -16 -20 -33 -20 -93 0 -80 4 -91 29 -77 19 10 35
2 43 -21 5 -14 22 -16 98 -15 90 2 93 2 121 34 23 26 29 42 29 78 0 39 -5 51
-34 80 -30 30 -40 34 -85 34 -46 0 -53 -3 -61 -25 -5 -14 -9 -29 -9 -33 3 -20
-3 -32 -16 -32 -21 0 -30 27 -16 44 9 11 8 18 -4 30 -22 22 -51 20 -75 -4z
m170 -96 c0 -8 -4 -12 -10 -9 -5 3 -10 10 -10 16 0 5 5 9 10 9 6 0 10 -7 10
-16z"/>
<path d="M38090 14772 c0 -17 -29 -22 -50 -9 -26 16 -56 -2 -52 -31 2 -11 -2
-23 -8 -27 -15 -9 -12 -92 5 -124 15 -29 50 -47 61 -30 3 5 45 7 100 3 l94 -7
40 43 c38 41 51 82 31 94 -4 3 -11 18 -14 33 -3 16 -16 34 -28 42 -28 16 -179
28 -179 13z"/>
<path d="M42310 15340 c-17 -17 -19 -29 -14 -97 3 -43 7 -87 9 -99 6 -30 45
-47 77 -35 19 7 31 6 46 -4 29 -21 138 -1 167 31 27 29 37 81 24 128 -21 76
-62 95 -206 96 -70 0 -86 -3 -103 -20z"/>
<path d="M41112 15356 l-33 -15 3 -108 3 -108 45 -22 c40 -20 55 -22 130 -17
93 7 121 19 151 67 16 26 19 43 15 87 -4 47 -10 60 -40 88 -27 24 -45 32 -73
32 -21 0 -67 2 -103 5 -46 4 -75 1 -98 -9z"/>
<path d="M46249 15373 c-20 -2 -45 -13 -55 -25 -18 -19 -19 -44 -19 -395 l0
-375 24 -19 c20 -17 35 -18 120 -14 120 6 146 12 196 41 118 68 195 207 195
348 0 196 -74 331 -218 398 -57 27 -155 50 -192 46 -8 -1 -31 -3 -51 -5z"/>
<path d="M26279 6651 c-37 -12 -71 -31 -96 -54 -22 -20 -23 -27 -23 -178 l0
-157 35 -30 c83 -74 221 -67 297 14 53 57 73 174 47 269 -28 101 -155 167
-260 136z"/>
<path d="M36148 6651 c-123 -40 -181 -176 -138 -325 40 -144 223 -194 344 -94
l36 29 0 158 c0 151 -1 158 -22 178 -54 49 -157 74 -220 54z"/>
<path d="M41528 6651 c-123 -40 -181 -176 -138 -325 40 -144 223 -194 344 -94
l36 29 0 158 c0 151 -1 158 -22 178 -54 49 -157 74 -220 54z"/>
<path d="M45997 6645 c-48 -17 -83 -48 -110 -100 -31 -58 -31 -193 0 -251 61
-114 197 -148 310 -78 l48 30 3 170 2 171 -38 27 c-68 47 -142 58 -215 31z"/>
<path d="M46908 6651 c-123 -40 -181 -176 -138 -325 40 -144 223 -194 344 -94
l36 29 0 158 c0 151 -1 158 -22 178 -54 49 -157 74 -220 54z"/>
<path d="M21760 6633 c-47 -24 -59 -37 -84 -85 -53 -105 -34 -246 42 -310 69
-58 200 -56 281 3 l41 29 0 153 c0 146 -1 154 -22 174 -38 34 -88 55 -147 60
-47 4 -64 0 -111 -24z"/>
<path d="M28968 6650 c-91 -27 -147 -101 -156 -205 -7 -90 12 -149 63 -200 70
-70 185 -84 275 -34 128 72 146 284 33 391 -51 49 -144 69 -215 48z"/>
<path d="M31647 6647 c-20 -7 -53 -25 -72 -40 l-35 -28 0 -158 0 -159 35 -30
c80 -71 210 -68 289 6 44 42 66 98 66 172 0 92 -16 138 -64 186 -59 60 -134
77 -219 51z"/>
<path d="M33446 6645 c-49 -17 -93 -59 -117 -110 -36 -78 -44 -75 185 -75 113
0 207 4 210 9 12 19 -27 101 -64 135 -60 54 -137 69 -214 41z"/>
<path d="M37013 6635 c-58 -29 -101 -83 -110 -139 l-6 -36 209 2 209 3 -4 25
c-1 14 -11 41 -22 61 -51 100 -170 136 -276 84z"/>
</g>
</svg>
